<?xml version="1.0" encoding="UTF-8" standalone="no"?>
<svg
   xmlns:dc="http://purl.org/dc/elements/1.1/"
   xmlns:cc="http://creativecommons.org/ns#"
   xmlns:rdf="http://www.w3.org/1999/02/22-rdf-syntax-ns#"
   xmlns:svg="http://www.w3.org/2000/svg"
   xmlns="http://www.w3.org/2000/svg"
   xmlns:sodipodi="http://sodipodi.sourceforge.net/DTD/sodipodi-0.dtd"
   xmlns:inkscape="http://www.inkscape.org/namespaces/inkscape"
   width="150"
   height="150"
   viewBox="0 -2.29 150 149.99996"
   class="css-1j8o68f"
   version="1.1"
   id="svg26"
   sodipodi:docname="fav.svg"
   inkscape:export-filename="C:\Users\User\OneDrive\Pizza\Sites\Dog\images\logo\fav-64.png"
   inkscape:export-xdpi="40.959999"
   inkscape:export-ydpi="40.959999"
   inkscape:version="0.92.5 (2060ec1f9f, 2020-04-08)">
  <metadata
     id="metadata30">
    <rdf:RDF>
      <cc:Work
         rdf:about="">
        <dc:format>image/svg+xml</dc:format>
        <dc:type
           rdf:resource="http://purl.org/dc/dcmitype/StillImage" />
        <dc:title></dc:title>
      </cc:Work>
    </rdf:RDF>
  </metadata>
  <sodipodi:namedview
     pagecolor="#ffffff"
     bordercolor="#666666"
     borderopacity="1"
     objecttolerance="10"
     gridtolerance="10"
     guidetolerance="10"
     inkscape:pageopacity="0"
     inkscape:pageshadow="2"
     inkscape:window-width="1366"
     inkscape:window-height="705"
     id="namedview28"
     showgrid="false"
     inkscape:zoom="2"
     inkscape:cx="36.246596"
     inkscape:cy="89.532633"
     inkscape:window-x="-8"
     inkscape:window-y="399"
     inkscape:window-maximized="1"
     inkscape:current-layer="svg26" />
  <defs
     id="SvgjsDefs1489" />
  <g
     aria-label="Eli Comportamentalista Canino"
     style="font-style:normal;font-weight:normal;font-size:39.05788422px;line-height:1.25;font-family:sans-serif;letter-spacing:0px;word-spacing:0px;fill:#016565;fill-opacity:1;stroke:none;stroke-width:0.97644717"
     id="text843-3-0"
     transform="translate(12.213134,14.583476)" />
  <circle
     style="opacity:1;fill:#ffffff;fill-opacity:1;fill-rule:nonzero;stroke:none;stroke-width:9.53271103;stroke-linecap:round;stroke-linejoin:round;stroke-miterlimit:4;stroke-dasharray:none;stroke-dashoffset:0;stroke-opacity:1;paint-order:fill markers stroke"
     id="path956"
     cx="75"
     cy="72.709999"
     r="75" />
  <g
     id="g954"
     transform="matrix(2.0822148,0,0,2.0822148,-79.521469,9.353924)"
     inkscape:export-xdpi="40.959999"
     inkscape:export-ydpi="40.959999"
     style="stroke:#c12f2f;stroke-width:1.3871212;stroke-miterlimit:4;stroke-dasharray:none;stroke-opacity:1">
    <path
       transform="translate(0,-2.29)"
       inkscape:connector-curvature="0"
       id="path942"
       d="m 61.563941,61.078618 c -0.940428,-0.20392 -1.924665,-0.66143 -2.420013,-1.124913 -0.34423,-0.322085 -0.358571,-0.324273 -0.84628,-0.129131 -0.614898,0.246034 -1.518734,0.255996 -1.966014,0.02167 -0.407681,-0.21358 -1.034739,-0.869427 -1.33471,-1.395988 -0.163419,-0.286862 -0.399446,-0.446255 -0.923671,-0.623774 -0.864221,-0.292653 -1.641661,-0.954899 -1.641661,-1.398415 0,-0.173758 0.398328,-1.006973 0.885172,-1.851589 l 0.885173,-1.535666 -0.135173,-1.343076 c -0.07434,-0.738692 -0.135172,-1.520897 -0.135172,-1.738233 0,-0.302856 0.563398,-1.254011 2.411992,-4.07204 3.729341,-5.685074 3.634897,-5.51962 3.547159,-6.214165 -0.04083,-0.323245 -0.313214,-1.347094 -0.605289,-2.275219 -0.292074,-0.928125 -0.530596,-1.899263 -0.530049,-2.158087 0.0014,-0.645374 1.098657,-2.779498 2.682351,-5.216913 0.692382,-1.065625 1.685423,-2.78125 2.206756,-3.8125 0.521333,-1.03125 1.164771,-2.179395 1.429861,-2.551433 l 0.481983,-0.676434 -0.370322,-0.225205 C 64.062222,22.074077 62.675201,18.87261 61.428962,14.08558 60.778915,11.588634 60.470939,10.16485 60.323835,8.9765459 60.225258,8.1802363 60.12473,7.8848881 59.796877,7.4283611 59.488431,6.9988574 59.42161,6.8160435 59.516906,6.6623958 c 0.06884,-0.1109985 0.604907,-0.5393154 1.191253,-0.9518154 0.586345,-0.4125 1.272194,-0.9328125 1.524107,-1.15625 0.251914,-0.2234375 0.566066,-0.40625 0.698117,-0.40625 0.163622,0 0.731649,0.6469547 1.783439,2.03125 1.485475,1.9550826 1.551912,2.0687477 1.771781,3.03125 0.500385,2.1904946 1.400551,4.7484966 2.623611,7.4555096 l 0.714093,1.580509 0.94145,0.04754 c 0.748291,0.03779 0.977394,0.0967 1.116642,0.287132 0.34723,0.474867 0.115294,1.8818 -0.406672,2.46688 -0.126849,0.142187 -1.193079,1.036262 -2.3694,1.986832 -1.176321,0.950571 -2.62792,2.214173 -3.225775,2.808004 -1.001313,0.994572 -1.149529,1.209297 -1.880023,2.723642 -1.240859,2.572349 -3.192937,7.054393 -3.192937,7.3311 0,0.34346 0.125937,0.316615 0.763275,-0.1627 1.581348,-1.189266 2.866891,-1.661432 3.039845,-1.116502 0.04364,0.137501 -0.07045,0.748839 -0.253545,1.358527 -0.451405,1.503165 -0.486467,2.979559 -0.08373,3.525635 l 0.278346,0.377413 -0.30802,0.696489 -0.308021,0.696488 -1.282826,0.0043 -1.282826,0.0043 -1.392481,2.089468 c -1.671961,2.508839 -3.501047,4.977494 -4.30907,5.815803 l -0.590298,0.612425 0.128669,0.826466 c 0.07077,0.454558 0.105579,1.309413 0.07736,1.899679 l -0.05131,1.073211 0.631067,-0.348042 c 0.77469,-0.427254 1.497224,-0.469439 1.695481,-0.09899 0.07464,0.139469 0.169343,0.537549 0.210449,0.884623 0.07843,0.66223 0.288733,0.986482 0.640315,0.987266 0.391813,8.75e-4 1.036626,0.503237 1.225186,0.954526 0.103302,0.247236 0.220974,1.047568 0.261493,1.778514 0.07214,1.301384 0.08224,1.337144 0.486364,1.721385 0.591516,0.56242 1.409501,0.733352 3.486778,0.728624 2.291099,-0.0052 4.549245,-0.473172 7.259422,-1.50437 2.900092,-1.10346 4.059187,-2.350003 4.099905,-4.40922 0.01458,-0.737335 -0.01018,-0.813219 -0.355178,-1.088805 l -0.37085,-0.296232 0.489551,-0.204547 c 0.351687,-0.146944 0.76145,-0.1922 1.455055,-0.160701 0.814425,0.03699 1.015896,0.09119 1.28755,0.346391 0.25624,0.240725 0.321484,0.419419 0.3193,0.874506 -0.0042,0.875724 -0.383995,1.533366 -1.585225,2.744959 -2.260644,2.280145 -5.601895,4.016556 -8.778875,4.562286 -1.484708,0.255038 -4.965083,0.259443 -6.125806,0.0078 z m 6.183631,-41.036099 1.089197,-1.418061 -0.845682,-2.144439 c -1.209854,-3.067882 -1.77223,-4.685103 -1.96962,-5.664024 L 65.848979,9.9605804 65.296536,9.8948378 C 64.573807,9.8088305 64.489089,9.7461729 64.054596,8.9762936 63.556495,8.0937064 62.983028,7.5466441 62.774518,7.7551551 c -0.217782,0.2177824 -0.15437,1.6336722 0.153929,3.4370299 0.13923,0.814406 0.253145,1.64627 0.253145,1.848587 0,0.549569 0.35309,2.170907 0.703923,3.232308 0.556986,1.685093 2.416114,5.320137 2.672257,5.224904 0.05533,-0.02057 0.590741,-0.675531 1.1898,-1.455465 z"
       style="opacity:1;fill:#c12f2f;fill-opacity:1;fill-rule:nonzero;stroke:#c12f2f;stroke-width:1.3871212;stroke-linecap:round;stroke-linejoin:round;stroke-miterlimit:4;stroke-dasharray:none;stroke-dashoffset:0;stroke-opacity:1;paint-order:fill markers stroke" />
    <path
       transform="translate(0,-2.29)"
       inkscape:connector-curvature="0"
       id="path944"
       d="m 73.369092,45.692741 c -1.650125,-0.841428 -1.963426,-1.258781 -1.551331,-2.066554 0.186335,-0.365246 0.248693,-0.684743 0.218533,-1.119673 -0.02321,-0.334724 -0.02276,-0.608554 0.001,-0.608511 0.02376,4.2e-5 0.207759,0.117251 0.408882,0.260463 0.681667,0.48539 1.731537,0.770966 3.071287,0.835422 l 1.273373,0.06126 -1.258106,1.483965 c -0.691958,0.816181 -1.321226,1.481346 -1.398373,1.478145 -0.07715,-0.0032 -0.421517,-0.149234 -0.765267,-0.324519 z"
       style="opacity:1;fill:#c12f2f;fill-opacity:1;fill-rule:nonzero;stroke:#c12f2f;stroke-width:1.3871212;stroke-linecap:round;stroke-linejoin:round;stroke-miterlimit:4;stroke-dasharray:none;stroke-dashoffset:0;stroke-opacity:1;paint-order:fill markers stroke" />
    <path
       transform="translate(0,-2.29)"
       inkscape:connector-curvature="0"
       id="path946"
       d="m 90.181592,38.97886 c 0,-0.02432 0.303745,-0.685257 0.674989,-1.46875 1.685961,-3.55814 2.855779,-7.803211 3.33772,-12.11203 0.306099,-2.736695 0.163364,-6.931654 -0.336001,-9.875 -0.178475,-1.051966 -0.897392,-4.09744 -1.011418,-4.284571 -0.03253,-0.05339 -2.798555,3.546611 -6.146717,8 -7.56892,10.067418 -8.715784,11.534571 -9.016487,11.534571 -0.237317,0 -0.898468,-0.692531 -1.271969,-1.33234 l -0.207384,-0.355248 0.806794,-0.937455 c 4.748135,-5.517108 8.735055,-10.554061 11.823503,-14.937457 1.270751,-1.803562 3.208013,-4.8106319 3.643955,-5.6562496 0.115189,-0.2234375 0.255754,-0.40625 0.312366,-0.40625 0.168862,0 1.271454,2.4548005 1.777802,3.9580756 0.501963,1.490261 0.993723,3.552924 1.261648,5.291924 0.103707,0.673116 0.161658,2.207748 0.158129,4.1875 -0.0047,2.64571 -0.04832,3.374232 -0.284296,4.75 -0.76413,4.45495 -2.359588,8.652587 -4.84423,12.74513 -0.501485,0.826014 -0.678404,1.060239 -0.678404,0.89815 z"
       style="opacity:1;fill:#c12f2f;fill-opacity:1;fill-rule:nonzero;stroke:#c12f2f;stroke-width:1.3871212;stroke-linecap:round;stroke-linejoin:round;stroke-miterlimit:4;stroke-dasharray:none;stroke-dashoffset:0;stroke-opacity:1;paint-order:fill markers stroke" />
    <path
       transform="translate(0,-2.29)"
       inkscape:connector-curvature="0"
       id="path948"
       d="m 84.475984,36.890045 c -0.587781,-0.217447 -1.412499,-1.705335 -1.41591,-2.554465 -0.0031,-0.774272 0.339195,-2.868293 0.694738,-4.25 0.795436,-3.091213 2.493407,-6.811214 4.578698,-10.03125 l 0.748787,-1.15625 1.518397,1.95e-4 c 1.747472,2.23e-4 2.293709,0.17661 2.498726,0.80687 0.186283,0.572669 -0.04002,1.182599 -1.302548,3.510602 -1.738033,3.2048 -4.741434,9.319412 -5.339091,10.869833 -0.979739,2.541607 -1.334666,3.043869 -1.981797,2.804465 z"
       style="opacity:1;fill:#c12f2f;fill-opacity:1;fill-rule:nonzero;stroke:#c12f2f;stroke-width:1.3871212;stroke-linecap:round;stroke-linejoin:round;stroke-miterlimit:4;stroke-dasharray:none;stroke-dashoffset:0;stroke-opacity:1;paint-order:fill markers stroke" />
  </g>
</svg>
