<?xml version="1.0" encoding="UTF-8" standalone="no"?>
<svg
   xmlns:dc="http://purl.org/dc/elements/1.1/"
   xmlns:cc="http://creativecommons.org/ns#"
   xmlns:rdf="http://www.w3.org/1999/02/22-rdf-syntax-ns#"
   xmlns:svg="http://www.w3.org/2000/svg"
   xmlns="http://www.w3.org/2000/svg"
   xmlns:sodipodi="http://sodipodi.sourceforge.net/DTD/sodipodi-0.dtd"
   xmlns:inkscape="http://www.inkscape.org/namespaces/inkscape"
   width="1118.7805"
   height="130.41765"
   viewBox="0 -2.29 1118.7805 130.41761"
   class="css-1j8o68f"
   version="1.1"
   id="svg26"
   sodipodi:docname="logo-comprido2.svg"
   inkscape:export-filename="C:\Users\User\OneDrive\Pizza\Sites\Dog\images\logo\logo-comprido2.png"
   inkscape:export-xdpi="85.807716"
   inkscape:export-ydpi="85.807716"
   inkscape:version="0.92.5 (2060ec1f9f, 2020-04-08)">
  <metadata
     id="metadata30">
    <rdf:RDF>
      <cc:Work
         rdf:about="">
        <dc:format>image/svg+xml</dc:format>
        <dc:type
           rdf:resource="http://purl.org/dc/dcmitype/StillImage" />
        <dc:title></dc:title>
      </cc:Work>
    </rdf:RDF>
  </metadata>
  <sodipodi:namedview
     pagecolor="#ffffff"
     bordercolor="#666666"
     borderopacity="1"
     objecttolerance="10"
     gridtolerance="10"
     guidetolerance="10"
     inkscape:pageopacity="0"
     inkscape:pageshadow="2"
     inkscape:window-width="1366"
     inkscape:window-height="705"
     id="namedview28"
     showgrid="false"
     inkscape:zoom="1.4142136"
     inkscape:cx="252.21501"
     inkscape:cy="107.72495"
     inkscape:window-x="-8"
     inkscape:window-y="399"
     inkscape:window-maximized="1"
     inkscape:current-layer="svg26" />
  <defs
     id="SvgjsDefs1489" />
  <path
     inkscape:connector-curvature="0"
     id="path835"
     style="font-style:normal;font-variant:normal;font-weight:normal;font-stretch:normal;font-size:46.86946487px;line-height:1.25;font-family:'Colonna MT';-inkscape-font-specification:'Colonna MT';letter-spacing:0px;word-spacing:0px;fill:#016565;fill-opacity:1;stroke:none;stroke-width:1.49166071"
     d="m 304.54344,58.925412 q -3.98553,5.139239 -3.98553,13.669674 0,9.99879 4.92947,15.033145 -3.7408,-1.573236 -5.94334,-5.69861 -2.20251,-4.090415 -2.20251,-9.229652 0,-3.531041 1.15371,-6.502709 1.08378,-2.936707 2.5871,-4.579865 1.39842,-1.573235 3.4611,-2.691983 z m 29.08739,24.332719 h 0.69922 l -1.11875,5.908375 q -3.25134,1.25859 -6.25798,1.852923 -3.00662,0.594333 -5.80349,0.594333 -8.46052,0 -13.25016,-4.929473 -4.78962,-4.894511 -4.78962,-14.229046 0,-9.299572 5.13924,-14.229044 5.10429,-4.894514 13.49487,-4.894514 6.08318,0 12.30621,2.202531 -0.27969,4.405062 -0.27969,5.209159 0,0.734177 0.035,1.433393 v 0.83906 q 0,1.817962 -0.1748,3.461119 h -0.59432 q -2.16759,-10.558162 -12.09644,-10.558162 -6.71249,0 -10.69801,4.3701 -3.98553,4.33514 -3.98553,12.515966 0,7.166965 3.67088,11.641947 3.63593,4.474983 10.9777,4.474983 4.05544,0 7.41168,-1.608197 3.32127,-1.538275 5.31404,-4.055453 z" />
  <path
     inkscape:connector-curvature="0"
     id="path837"
     style="font-style:normal;font-variant:normal;font-weight:normal;font-stretch:normal;font-size:46.86946487px;line-height:1.25;font-family:'Colonna MT';-inkscape-font-specification:'Colonna MT';letter-spacing:0px;word-spacing:0px;fill:#016565;fill-opacity:1;stroke:none;stroke-width:1.49166071"
     d="m 344.29386,67.665615 q -3.25135,3.600961 -3.25135,10.628083 0,7.02712 3.25135,10.767926 -6.0482,-3.426158 -6.0482,-10.907769 0,-7.376731 6.0482,-10.48824 z m 19.22847,21.011441 q 3.21637,-3.600964 3.21637,-9.99879 0,-3.46112 -0.76912,-6.502708 -0.8041,-3.111512 -2.44725,-4.544905 6.11813,3.391199 6.11813,10.418318 0,6.747435 -6.11813,10.628085 z M 346.35657,78.083932 q 0,6.397829 1.95778,8.670279 1.95782,2.272452 5.55879,2.272452 3.3912,0 5.48884,-2.377334 2.06268,-2.377334 2.06268,-8.67028 0,-10.593121 -7.55152,-10.593121 -7.51657,0 -7.51657,10.698004 z m -2.93671,0.559374 q 0,-6.782396 2.7619,-10.103672 2.79687,-3.356237 7.69138,-3.356237 4.5449,0 7.51656,2.971667 2.97167,2.971669 2.97167,9.823985 0,7.516574 -3.18143,10.488242 -3.21639,3.006628 -7.4117,3.006628 -4.30016,0 -7.3068,-3.146472 -3.04158,-3.111511 -3.04158,-9.684141 z" />
  <path
     inkscape:connector-curvature="0"
     id="path839"
     style="font-style:normal;font-variant:normal;font-weight:normal;font-stretch:normal;font-size:46.86946487px;line-height:1.25;font-family:'Colonna MT';-inkscape-font-specification:'Colonna MT';letter-spacing:0px;word-spacing:0px;fill:#016565;fill-opacity:1;stroke:none;stroke-width:1.49166071"
     d="M 421.90685,90.844624 V 72.73493 q 0,-2.971668 -0.45448,-4.230257 -0.4545,-1.29355 -1.8879,-2.447256 2.72694,0.349607 3.8457,1.852924 1.08378,1.503313 1.08378,4.964432 v 10.418319 q 0,3.531041 0.90898,5.174199 0.90898,1.643156 3.28631,2.167568 v 0.629296 q -4.02048,-0.419531 -6.78239,-0.419531 z M 380.26853,65.917572 v 24.927052 q -4.02049,0.06992 -6.57263,0.419531 v -0.629296 q 2.44726,-0.839058 3.21641,-2.342373 0.76913,-1.503314 0.76913,-4.754668 v -10.48824 q 0,-3.146474 -0.87403,-4.75467 -0.87401,-1.608197 -3.11151,-2.167569 v -0.594335 q 0.5244,0.104884 6.57263,0.384568 z m 2.34238,24.927052 V 65.917572 q 1.85293,-0.209762 2.79687,-0.384568 -0.13978,1.293551 -0.17482,2.062689 4.57987,-2.412296 8.18084,-2.412296 3.49608,0 5.03436,1.74804 1.53827,1.817962 1.53827,5.104277 v 18.80891 q -2.62206,0 -6.6775,0.419531 v -0.629296 q 2.34234,-0.664255 3.21638,-2.272452 0.83906,-1.573235 0.83906,-4.754666 V 72.525165 q 0,-2.65702 -0.90899,-3.880648 -0.87402,-1.153707 -3.60096,-1.153707 -3.00663,0 -7.62146,2.272452 v 14.054242 q 0,2.971668 0.87404,4.474982 0.874,1.573236 3.35623,2.342373 v 0.629296 q -3.14648,-0.419531 -6.85232,-0.419531 z m 19.613,0 V 71.581223 q 0,-4.265217 -2.09763,-5.663651 2.69198,0.139842 3.88063,2.202533 4.475,-2.936708 9.08983,-2.936708 2.16756,0 3.88065,1.013863 1.6781,1.013863 2.13259,2.412297 0.45449,1.36347 0.45449,4.335138 v 17.899929 q -1.6082,0.06992 -3.11152,0.209765 0.48947,-2.726942 0.48947,-6.817357 V 73.853677 q 0,-2.901748 -0.24474,-3.915611 -0.24473,-1.048824 -1.32851,-1.852923 -1.08376,-0.769137 -2.7619,-0.769137 -3.14646,0 -7.83122,2.482217 0.13977,0.314647 0.13977,1.957805 v 11.991555 q 0,3.251353 0.90899,4.859553 0.87402,1.538273 3.21638,2.027723 v 0.629296 q -5.1742,-0.419531 -6.81735,-0.419531 z" />
  <path
     inkscape:connector-curvature="0"
     id="path841"
     style="font-style:normal;font-variant:normal;font-weight:normal;font-stretch:normal;font-size:46.86946487px;line-height:1.25;font-family:'Colonna MT';-inkscape-font-specification:'Colonna MT';letter-spacing:0px;word-spacing:0px;fill:#016565;fill-opacity:1;stroke:none;stroke-width:1.49166071"
     d="m 460.78328,88.781938 -0.20978,-0.384569 q 3.32127,-3.426157 3.32127,-10.173593 0,-6.153101 -3.32127,-10.383357 l 0.20978,-0.209766 q 5.97829,3.91561 5.97829,10.523202 0,3.146471 -1.57325,6.1531 -1.57323,3.006629 -4.40504,4.474983 z M 438.37339,65.917572 v 46.427938 l -2.72693,0.20978 q 0.20976,-5.17421 0.20976,-11.04762 V 74.238245 q 0,-3.04159 -0.27968,-4.440022 -0.24473,-1.258589 -1.36349,-2.307413 -1.08377,-1.048823 -2.79687,-1.363471 v -0.594335 q 1.25859,0 3.39122,0.209766 2.16757,0.174802 3.56599,0.174802 z m 5.03435,5.10428 v 16.396614 q 2.58711,1.71308 6.0832,1.71308 3.81072,0 6.5027,-2.691982 2.62206,-2.691981 2.62206,-8.040984 0,-5.104277 -2.30742,-7.971062 -2.34238,-2.831825 -5.73356,-2.831825 -4.0205,0 -7.16698,3.426159 z m -2.51718,41.323658 V 65.917572 q 1.85293,-0.104883 2.69198,-0.174802 -0.13976,1.363472 -0.1748,2.237492 3.53105,-2.62206 7.13201,-2.62206 5.27908,0 8.14586,3.810726 2.8668,3.810729 2.8668,9.264613 0,5.349002 -3.14648,9.229651 -3.14648,3.880649 -8.60035,3.880649 -3.04159,0 -6.39784,-1.503315 v 14.124164 q 0,3.21639 0.41954,4.57987 0.41954,1.3285 1.88789,2.34237 1.43338,0.97889 4.02049,1.08377 v 0.59435 h -0.94395 q -0.73417,0 -2.90175,-0.17481 -2.44725,-0.20976 -4.9994,-0.24473 z" />
  <path
     inkscape:connector-curvature="0"
     id="path843"
     style="font-style:normal;font-variant:normal;font-weight:normal;font-stretch:normal;font-size:46.86946487px;line-height:1.25;font-family:'Colonna MT';-inkscape-font-specification:'Colonna MT';letter-spacing:0px;word-spacing:0px;fill:#016565;fill-opacity:1;stroke:none;stroke-width:1.49166071"
     d="m 477.00509,67.665615 q -3.25136,3.600961 -3.25136,10.628083 0,7.02712 3.25136,10.767926 -6.04822,-3.426158 -6.04822,-10.907769 0,-7.376731 6.04822,-10.48824 z m 19.22843,21.011441 q 3.2164,-3.600964 3.2164,-9.99879 0,-3.46112 -0.76914,-6.502708 -0.80409,-3.111512 -2.44726,-4.544905 6.11814,3.391199 6.11814,10.418318 0,6.747435 -6.11814,10.628085 z M 479.06778,78.083932 q 0,6.397829 1.95779,8.670279 1.95781,2.272452 5.55878,2.272452 3.39119,0 5.48884,-2.377334 2.06268,-2.377334 2.06268,-8.67028 0,-10.593121 -7.55152,-10.593121 -7.51657,0 -7.51657,10.698004 z m -2.93672,0.559374 q 0,-6.782396 2.7619,-10.103672 2.79687,-3.356237 7.69139,-3.356237 4.54489,0 7.51658,2.971667 2.97165,2.971669 2.97165,9.823985 0,7.516574 -3.18144,10.488242 -3.21638,3.006628 -7.41167,3.006628 -4.30019,0 -7.30681,-3.146472 -3.0416,-3.111511 -3.0416,-9.684141 z" />
  <path
     inkscape:connector-curvature="0"
     id="path845"
     style="font-style:normal;font-variant:normal;font-weight:normal;font-stretch:normal;font-size:46.86946487px;line-height:1.25;font-family:'Colonna MT';-inkscape-font-specification:'Colonna MT';letter-spacing:0px;word-spacing:0px;fill:#016565;fill-opacity:1;stroke:none;stroke-width:1.49166071"
     d="m 512.94477,65.917572 v 24.927052 q -5.13925,0.06992 -6.95719,0.419531 v -0.629296 q 2.8318,-1.013861 3.63591,-2.482216 0.83906,-1.538276 0.83906,-5.488845 v -9.019886 q 0,-3.740808 -0.97889,-5.349004 -1.01387,-1.643157 -3.49608,-2.167569 v -0.594335 q 1.08378,0.209766 6.95719,0.384568 z m 2.51718,24.927052 V 65.917572 q 1.15371,-0.03496 2.79686,-0.384568 -0.20976,1.363473 -0.27968,4.684749 3.67088,-4.684749 5.24412,-4.684749 0.90897,0 3.35625,1.013864 2.13259,0.908982 2.90173,0.908982 1.01386,0 2.27245,-1.433393 0.10488,-0.104885 0.13978,-0.13984 0.035,-0.06992 0.31466,-0.349608 l 0.80409,0.384568 q -1.67813,3.775766 -4.33514,3.775766 -0.90899,0 -3.53104,-1.153705 -1.08379,-0.489451 -1.64314,-0.489451 -1.67815,0 -3.56602,2.167568 0.90898,-0.279685 1.53828,-0.279685 0.9789,0 3.60095,1.188666 1.88788,0.804099 2.72695,0.804099 0.55936,0 1.15371,-0.349609 -1.71309,2.202532 -3.32128,2.202532 -0.73418,0 -2.41231,-0.804099 -2.41229,-1.188667 -3.3562,-1.188667 -0.94396,0 -1.88791,1.013862 v 10.628083 q 0,3.566003 1.15371,5.20916 1.1537,1.643157 3.70583,1.992765 v 0.629295 q -4.0904,-0.419529 -7.37672,-0.419529 z" />
  <path
     inkscape:connector-curvature="0"
     id="path847"
     style="font-style:normal;font-variant:normal;font-weight:normal;font-stretch:normal;font-size:46.86946487px;line-height:1.25;font-family:'Colonna MT';-inkscape-font-specification:'Colonna MT';letter-spacing:0px;word-spacing:0px;fill:#016565;fill-opacity:1;stroke:none;stroke-width:1.49166071"
     d="M 536.77056,81.824738 V 68.81932 h -2.23749 v -0.279686 l 4.82459,-4.579864 v 19.927656 q 0,3.426158 0.66425,4.754669 0.66426,1.363471 1.81797,2.027726 -2.86679,-0.209764 -3.98553,-2.097648 -1.08379,-1.852922 -1.08379,-6.747435 z m 7.51657,-23.213971 v 7.796257 h 5.9783 q 1.64316,0 2.48222,-0.349607 0.90897,-0.384569 2.09763,-1.573235 h 0.87404 q -2.13263,2.971668 -3.0416,3.670882 -0.87402,0.664256 -2.65703,0.664256 h -5.73356 v 13.355026 q 0,2.971669 0.31464,4.090414 0.27969,1.083784 1.36348,1.887883 1.08378,0.769138 3.04158,0.769138 3.88066,0 6.71249,-3.635923 l 0.73417,0.419529 q -2.8668,5.558768 -8.32066,5.558768 -2.34239,0 -3.91562,-1.048824 -1.6082,-1.048825 -2.13261,-2.657022 -0.5244,-1.643157 -0.5244,-4.719708 V 61.7922 q 1.46835,-1.538275 2.72693,-3.181433 z" />
  <path
     inkscape:connector-curvature="0"
     id="path849"
     style="font-style:normal;font-variant:normal;font-weight:normal;font-stretch:normal;font-size:46.86946487px;line-height:1.25;font-family:'Colonna MT';-inkscape-font-specification:'Colonna MT';letter-spacing:0px;word-spacing:0px;fill:#016565;fill-opacity:1;stroke:none;stroke-width:1.49166071"
     d="m 564.30219,78.083932 q -2.20254,2.761904 -2.20254,6.048219 0,3.880649 2.72694,6.362867 -2.1326,-0.489452 -3.77577,-2.132611 -1.71308,-1.608196 -1.71308,-4.195295 0,-4.509944 4.96445,-6.08318 z m 22.47979,13.180223 -6.71249,-0.419531 V 72.699969 q 0,-2.761903 -0.5244,-4.055452 -0.59432,-1.328511 -2.0627,-2.272452 3.04161,0.594334 4.12539,2.167569 1.08379,1.608198 1.08379,5.768532 v 10.802889 q 0,2.761903 0.76913,3.950569 0.73418,1.188666 3.32128,1.573235 z m -11.607,-3.321277 v -9.124769 q -1.15369,-0.13984 -1.95779,-0.13984 -2.7619,0 -4.30019,1.678119 -1.53827,1.71308 -1.53827,3.915609 0,1.992765 1.29355,3.391197 1.3285,1.468354 3.2164,1.468354 1.67811,0 3.2863,-1.188666 z m 0,-11.047612 v -3.705845 q 0,-2.517178 -1.01386,-3.950571 -1.04882,-1.398431 -4.05544,-1.398431 -4.68476,0 -7.90115,3.531041 l -0.87402,-0.83906 q 1.29356,-2.20253 4.09041,-3.635923 2.79687,-1.363473 5.8035,-1.363473 6.53768,0 6.53768,7.132004 v 18.179616 q -1.6082,0.06992 -2.69198,0.419531 l 0.10476,-1.852923 q -1.74804,1.852923 -4.16035,1.852923 -2.76189,0 -4.61481,-2.167571 -1.88789,-2.167568 -1.88789,-4.894512 0,-3.146471 2.30742,-5.383963 2.23749,-2.237491 5.97829,-2.237491 1.18868,0 2.37734,0.314648 z" />
  <path
     inkscape:connector-curvature="0"
     id="path851"
     style="font-style:normal;font-variant:normal;font-weight:normal;font-stretch:normal;font-size:46.86946487px;line-height:1.25;font-family:'Colonna MT';-inkscape-font-specification:'Colonna MT';letter-spacing:0px;word-spacing:0px;fill:#016565;fill-opacity:1;stroke:none;stroke-width:1.49166071"
     d="M 638.10443,90.844624 V 72.73493 q 0,-2.971668 -0.45448,-4.230257 -0.45451,-1.29355 -1.8879,-2.447256 2.72694,0.349607 3.8457,1.852924 1.08378,1.503313 1.08378,4.964432 v 10.418319 q 0,3.531041 0.90898,5.174199 0.90899,1.643156 3.2863,2.167568 v 0.629296 q -4.02048,-0.419531 -6.78238,-0.419531 z M 596.46611,65.917572 v 24.927052 q -4.02049,0.06992 -6.57264,0.419531 v -0.629296 q 2.44729,-0.839058 3.21642,-2.342373 0.76914,-1.503314 0.76914,-4.754668 v -10.48824 q 0,-3.146474 -0.87403,-4.75467 -0.87403,-1.608197 -3.11153,-2.167569 v -0.594335 q 0.52445,0.104884 6.57264,0.384568 z m 2.34239,24.927052 V 65.917572 q 1.85292,-0.209762 2.79687,-0.384568 -0.13979,1.293551 -0.17481,2.062689 4.57985,-2.412296 8.18081,-2.412296 3.49609,0 5.03436,1.74804 1.53827,1.817962 1.53827,5.104277 v 18.80891 q -2.62206,0 -6.6775,0.419531 v -0.629296 q 2.34238,-0.664255 3.2164,-2.272452 0.83904,-1.573235 0.83904,-4.754666 V 72.525165 q 0,-2.65702 -0.90896,-3.880648 -0.87404,-1.153707 -3.60096,-1.153707 -3.00664,0 -7.62146,2.272452 v 14.054242 q 0,2.971668 0.87401,4.474982 0.87403,1.573236 3.35624,2.342373 v 0.629296 q -3.14648,-0.419531 -6.85231,-0.419531 z m 19.61301,0 V 71.581223 q 0,-4.265217 -2.09764,-5.663651 2.69197,0.139842 3.88065,2.202533 4.47497,-2.936708 9.08979,-2.936708 2.16757,0 3.88065,1.013863 1.67812,1.013863 2.13261,2.412297 0.45448,1.36347 0.45448,4.335138 v 17.899929 q -1.60819,0.06992 -3.11149,0.209765 Q 633.14,88.327447 633.14,84.237032 V 73.853677 q 0,-2.901748 -0.24473,-3.915611 -0.24471,-1.048824 -1.3285,-1.852923 -1.08378,-0.769137 -2.76191,-0.769137 -3.14648,0 -7.83121,2.482217 0.13979,0.314647 0.13979,1.957805 v 11.991555 q 0,3.251353 0.90897,4.859553 0.87402,1.538273 3.21637,2.027723 v 0.629296 q -5.17418,-0.419531 -6.81732,-0.419531 z" />
  <path
     inkscape:connector-curvature="0"
     id="path853"
     style="font-style:normal;font-variant:normal;font-weight:normal;font-stretch:normal;font-size:46.86946487px;line-height:1.25;font-family:'Colonna MT';-inkscape-font-specification:'Colonna MT';letter-spacing:0px;word-spacing:0px;fill:#016565;fill-opacity:1;stroke:none;stroke-width:1.49166071"
     d="m 653.7669,88.047761 -0.13979,0.209765 q -5.27908,-3.04159 -5.27908,-9.544299 0,-2.517178 0.94395,-4.85955 0.94392,-2.342376 3.95056,-4.719709 l 0.17479,0.174803 q -2.20251,3.810729 -2.20251,9.15973 0,5.558768 2.55213,9.57926 z m 24.43759,-11.222417 h -3.11151 q -0.17481,-6.362866 -3.32128,-9.334534 5.62869,2.342373 6.43279,9.334534 z m -21.36106,-2.587099 h 12.44605 q -0.17481,-2.517179 -1.64315,-4.474983 -1.53827,-1.957805 -4.40507,-1.957805 -2.55214,0 -4.30016,1.783002 -1.74805,1.783001 -2.09767,4.649786 z m 15.94214,2.587099 h -16.22182 q -0.07,1.74804 -0.07,2.132608 0,4.544905 2.48218,7.306808 2.48223,2.726943 6.46777,2.726943 3.2863,0 5.94334,-1.783003 2.65701,-1.782999 4.19529,-4.789629 h 1.5033 q -3.21638,9.194691 -12.23627,9.194691 -5.41891,0 -8.35561,-3.775767 -2.93674,-3.740803 -2.93674,-9.474375 0,-5.523807 2.72694,-9.194692 2.69198,-3.635924 7.02712,-3.635924 3.49609,0 6.15311,2.62206 2.62206,2.587101 3.32129,8.67028 z" />
  <path
     inkscape:connector-curvature="0"
     id="path855"
     style="font-style:normal;font-variant:normal;font-weight:normal;font-stretch:normal;font-size:46.86946487px;line-height:1.25;font-family:'Colonna MT';-inkscape-font-specification:'Colonna MT';letter-spacing:0px;word-spacing:0px;fill:#016565;fill-opacity:1;stroke:none;stroke-width:1.49166071"
     d="m 710.54323,90.844624 v -17.06087 q 0,-3.531041 -0.48945,-5.104277 -0.45449,-1.433392 -2.23749,-2.552138 2.37733,0.174804 3.81072,1.643158 1.43338,1.503315 1.43338,6.817355 v 8.145869 q 0,3.006627 0.34963,4.265215 0.31464,1.363471 1.46835,2.342375 1.11874,1.013863 2.65703,1.293548 v 0.629296 q -1.15373,-0.104883 -3.84571,-0.279688 -2.657,-0.139839 -3.14646,-0.139839 z M 688.30816,65.917572 v 24.927052 q -3.60096,0.174805 -6.25799,0.419531 v -0.629296 q 1.57325,-0.524412 2.62206,-1.887881 1.04884,-1.363472 1.04884,-6.537671 v -8.600358 q 0,-3.496079 -0.80411,-5.174198 -0.83905,-1.573235 -3.39119,-2.307412 v -0.594335 q 1.64315,0.209766 6.78239,0.384568 z m 2.48222,24.927052 V 65.917572 q 1.85291,-0.06992 2.79687,-0.174802 l -0.24473,1.852923 q 4.3701,-2.202531 8.1109,-2.202531 2.41229,0 4.12537,1.188668 1.67813,1.223627 2.09765,2.761903 0.41954,1.573235 0.41954,5.104276 v 16.396615 q -1.4334,0.06992 -2.79687,0.209765 0.24473,-4.3701 0.24473,-6.11814 V 73.783754 q 0,-3.426157 -0.9789,-4.824591 -1.01388,-1.433392 -3.63593,-1.433392 -2.79688,0 -7.58649,2.307412 v 14.229046 q 0,5.593729 4.12538,6.57263 v 0.629296 q -4.19531,-0.419531 -6.67752,-0.419531 z" />
  <path
     inkscape:connector-curvature="0"
     id="path857"
     style="font-style:normal;font-variant:normal;font-weight:normal;font-stretch:normal;font-size:46.86946487px;line-height:1.25;font-family:'Colonna MT';-inkscape-font-specification:'Colonna MT';letter-spacing:0px;word-spacing:0px;fill:#016565;fill-opacity:1;stroke:none;stroke-width:1.49166071"
     d="M 724.07306,81.824738 V 68.81932 h -2.2375 v -0.279686 l 4.82461,-4.579864 v 19.927656 q 0,3.426158 0.66424,4.754669 0.66426,1.363471 1.81797,2.027726 -2.86678,-0.209764 -3.98554,-2.097648 -1.08378,-1.852922 -1.08378,-6.747435 z m 7.51657,-23.213971 v 7.796257 h 5.97831 q 1.64316,0 2.48221,-0.349607 0.90898,-0.384569 2.09765,-1.573235 h 0.87404 q -2.13262,2.971668 -3.04161,3.670882 -0.87402,0.664256 -2.65702,0.664256 h -5.73358 v 13.355026 q 0,2.971669 0.31466,4.090414 0.2797,1.083784 1.36348,1.887883 1.08379,0.769138 3.04156,0.769138 3.88066,0 6.71251,-3.635923 l 0.73416,0.419529 q -2.86678,5.558768 -8.32067,5.558768 -2.34237,0 -3.91562,-1.048824 -1.60819,-1.048825 -2.13259,-2.657022 -0.52441,-1.643157 -0.52441,-4.719708 V 61.7922 q 1.46834,-1.538275 2.72692,-3.181433 z" />
  <path
     inkscape:connector-curvature="0"
     id="path859"
     style="font-style:normal;font-variant:normal;font-weight:normal;font-stretch:normal;font-size:46.86946487px;line-height:1.25;font-family:'Colonna MT';-inkscape-font-specification:'Colonna MT';letter-spacing:0px;word-spacing:0px;fill:#016565;fill-opacity:1;stroke:none;stroke-width:1.49166071"
     d="m 751.55222,78.083932 q -2.20254,2.761904 -2.20254,6.048219 0,3.880649 2.72694,6.362867 -2.13259,-0.489452 -3.77576,-2.132611 -1.71308,-1.608196 -1.71308,-4.195295 0,-4.509944 4.96444,-6.08318 z m 22.47979,13.180223 -6.71246,-0.419531 V 72.699969 q 0,-2.761903 -0.52442,-4.055452 -0.59433,-1.328511 -2.06268,-2.272452 3.04158,0.594334 4.12537,2.167569 1.08378,1.608198 1.08378,5.768532 v 10.802889 q 0,2.761903 0.76913,3.950569 0.73419,1.188666 3.32128,1.573235 z m -11.60698,-3.321277 v -9.124769 q -1.1537,-0.13984 -1.9578,-0.13984 -2.76191,0 -4.30019,1.678119 -1.53828,1.71308 -1.53828,3.915609 0,1.992765 1.29355,3.391197 1.32852,1.468354 3.2164,1.468354 1.67811,0 3.28632,-1.188666 z m 0,-11.047612 v -3.705845 q 0,-2.517178 -1.01388,-3.950571 -1.04881,-1.398431 -4.05543,-1.398431 -4.68476,0 -7.90115,3.531041 l -0.87402,-0.83906 q 1.29357,-2.20253 4.09041,-3.635923 2.79687,-1.363473 5.8035,-1.363473 6.53768,0 6.53768,7.132004 v 18.179616 q -1.6082,0.06992 -2.69198,0.419531 l 0.10476,-1.852923 q -1.74802,1.852923 -4.16032,1.852923 -2.76191,0 -4.61482,-2.167571 -1.88791,-2.167568 -1.88791,-4.894512 0,-3.146471 2.30742,-5.383963 2.2375,-2.237491 5.9783,-2.237491 1.18867,0 2.37733,0.314648 z" />
  <path
     inkscape:connector-curvature="0"
     id="path861"
     style="font-style:normal;font-variant:normal;font-weight:normal;font-stretch:normal;font-size:46.86946487px;line-height:1.25;font-family:'Colonna MT';-inkscape-font-specification:'Colonna MT';letter-spacing:0px;word-spacing:0px;fill:#016565;fill-opacity:1;stroke:none;stroke-width:1.49166071"
     d="m 794.65891,89.516115 0.17481,0.734175 q -1.64316,1.293551 -3.67087,1.293551 -2.86679,0 -4.23028,-2.20253 -1.36346,-2.16757 -1.36346,-7.37673 V 48.577017 q 2.09764,-0.06993 2.97167,-0.174804 -0.38456,5.978297 -0.38456,8.600357 v 23.423736 q 0,4.300177 0.20975,5.873415 0.20977,1.608197 1.29355,2.587099 1.04883,1.048824 2.9367,1.048824 1.01386,0 2.06269,-0.419529 z M 783.26169,48.577017 v 33.352604 q 0,4.754668 0.52441,6.223022 0.52443,1.503315 1.67811,2.971667 -1.92283,-0.559371 -2.97165,-1.782999 -1.04884,-1.153707 -1.43341,-3.111512 -0.34959,-1.748038 -0.34959,-6.223022 V 56.583041 q 0,-3.181434 -0.24472,-4.300179 -0.27969,-1.258589 -1.25861,-2.237492 -0.97889,-0.978901 -2.55214,-1.258588 v -0.594333 q 1.0838,0 3.32127,0.209764 1.11876,0.104883 3.28633,0.174804 z" />
  <path
     inkscape:connector-curvature="0"
     id="path863"
     style="font-style:normal;font-variant:normal;font-weight:normal;font-stretch:normal;font-size:46.86946487px;line-height:1.25;font-family:'Colonna MT';-inkscape-font-specification:'Colonna MT';letter-spacing:0px;word-spacing:0px;fill:#016565;fill-opacity:1;stroke:none;stroke-width:1.49166071"
     d="M 805.63662,82.733721 V 65.917572 h 2.62206 v 17.340559 q 0,6.362867 4.44,6.362867 1.43341,0 2.34238,-0.559374 v 0.769136 q -1.78299,1.468356 -3.91561,1.468356 -1.9578,0 -3.28632,-1.188669 -1.43338,-1.223627 -1.78299,-2.691981 -0.41952,-1.468353 -0.41952,-4.684745 z m -4.92949,-0.594335 V 65.917572 h 2.62206 v 17.44544 q 0,3.845688 0.76915,5.488847 0.73416,1.71308 2.44724,2.447257 h -1.08378 q -2.34237,-1.048826 -3.566,-2.936709 -1.18867,-1.852921 -1.18867,-6.223021 z m 1.36349,-27.863759 4.92945,4.579865 -1.67811,1.74804 -4.8945,-4.544905 z m 3.25134,-3.49608 4.8945,4.579865 -1.64314,1.74804 -4.92949,-4.544903 z" />
  <path
     inkscape:connector-curvature="0"
     id="path865"
     style="font-style:normal;font-variant:normal;font-weight:normal;font-stretch:normal;font-size:46.86946487px;line-height:1.25;font-family:'Colonna MT';-inkscape-font-specification:'Colonna MT';letter-spacing:0px;word-spacing:0px;fill:#016565;fill-opacity:1;stroke:none;stroke-width:1.49166071"
     d="m 818.57209,81.545051 h 0.52443 q 1.04881,3.251355 3.46111,5.418924 2.44725,2.167571 5.24411,2.167571 2.20254,0 3.81075,-1.118746 1.53827,-1.118745 1.53827,-2.62206 0,-1.608197 -1.57325,-2.587099 -1.6082,-0.978903 -5.8734,-1.852923 -4.19529,-0.90898 -6.25799,-2.65702 -2.06269,-1.783 -2.06269,-4.440021 0,-2.062689 1.36347,-3.88065 -0.13977,0.874019 -0.13977,1.608196 0,1.74804 1.04881,3.286317 0.97891,1.468352 2.76192,2.237489 1.74803,0.76914 5.87342,1.783002 3.9156,0.943941 5.69859,2.307413 1.74806,1.363471 1.74806,3.950571 0,2.726943 -2.20254,4.474983 -2.16757,1.713079 -6.3279,1.713079 -3.67088,0 -8.46052,-1.783001 0,-2.657021 -0.13979,-3.775767 -0.10487,-1.048826 -0.10487,-2.237491 0,-0.664254 0.07,-1.992767 z m 19.96263,-7.586493 h -0.48944 q -1.22364,-3.216393 -3.91562,-4.859551 -2.65702,-1.608197 -5.38396,-1.608197 -2.1326,0 -3.77577,0.83906 -1.60819,0.87402 -1.60819,2.482216 0,1.223628 1.18866,1.887883 1.11875,0.629294 4.40505,1.328511 6.78241,1.433392 8.77518,3.670884 1.99276,2.237491 1.99276,4.719707 0,2.13261 -1.95781,4.789629 0.2797,-1.293548 0.2797,-2.202529 0,-2.691982 -1.81798,-4.929473 -1.78299,-2.202529 -8.35562,-3.740806 -3.88066,-0.908981 -5.38396,-2.027726 -1.53828,-1.153706 -1.53828,-3.391198 0,-2.517176 2.27245,-4.055452 2.2375,-1.503314 6.6076,-1.503314 4.16031,0 8.53043,1.713078 -0.07,0.839061 -0.07,0.943942 0,1.293549 0.13976,2.726943 0.10488,1.258588 0.10488,3.216393 z" />
  <path
     inkscape:connector-curvature="0"
     id="path867"
     style="font-style:normal;font-variant:normal;font-weight:normal;font-stretch:normal;font-size:46.86946487px;line-height:1.25;font-family:'Colonna MT';-inkscape-font-specification:'Colonna MT';letter-spacing:0px;word-spacing:0px;fill:#016565;fill-opacity:1;stroke:none;stroke-width:1.49166071"
     d="M 847.27493,81.824738 V 68.81932 h -2.2375 v -0.279686 l 4.82461,-4.579864 v 19.927656 q 0,3.426158 0.66425,4.754669 0.66426,1.363471 1.81797,2.027726 -2.86679,-0.209764 -3.98555,-2.097648 -1.08378,-1.852922 -1.08378,-6.747435 z m 7.51656,-23.213971 v 7.796257 h 5.9783 q 1.6432,0 2.4822,-0.349607 0.909,-0.384569 2.0977,-1.573235 h 0.874 q -2.1326,2.971668 -3.0416,3.670882 -0.874,0.664256 -2.657,0.664256 h -5.7336 v 13.355026 q 0,2.971669 0.31466,4.090414 0.27968,1.083784 1.36344,1.887883 1.0838,0.769138 3.0416,0.769138 3.8807,0 6.7125,-3.635923 l 0.7342,0.419529 q -2.8668,5.558768 -8.3207,5.558768 -2.3424,0 -3.91561,-1.048824 -1.60818,-1.048825 -2.13259,-2.657022 -0.52443,-1.643157 -0.52443,-4.719708 V 61.7922 q 1.46835,-1.538275 2.72693,-3.181433 z" />
  <path
     inkscape:connector-curvature="0"
     id="path869"
     style="font-style:normal;font-variant:normal;font-weight:normal;font-stretch:normal;font-size:46.86946487px;line-height:1.25;font-family:'Colonna MT';-inkscape-font-specification:'Colonna MT';letter-spacing:0px;word-spacing:0px;fill:#016565;fill-opacity:1;stroke:none;stroke-width:1.49166071"
     d="m 874.75409,78.083932 q -2.2025,2.761904 -2.2025,6.048219 0,3.880649 2.7269,6.362867 -2.1326,-0.489452 -3.7758,-2.132611 -1.713,-1.608196 -1.713,-4.195295 0,-4.509944 4.9644,-6.08318 z m 22.4798,13.180223 -6.7125,-0.419531 V 72.699969 q 0,-2.761903 -0.5244,-4.055452 -0.5943,-1.328511 -2.0627,-2.272452 3.0416,0.594334 4.1254,2.167569 1.0838,1.608198 1.0838,5.768532 v 10.802889 q 0,2.761903 0.7691,3.950569 0.7342,1.188666 3.3213,1.573235 z m -11.607,-3.321277 v -9.124769 q -1.1537,-0.13984 -1.9578,-0.13984 -2.7619,0 -4.3002,1.678119 -1.5383,1.71308 -1.5383,3.915609 0,1.992765 1.2936,3.391197 1.3285,1.468354 3.2164,1.468354 1.6781,0 3.2863,-1.188666 z m 0,-11.047612 v -3.705845 q 0,-2.517178 -1.0139,-3.950571 -1.0488,-1.398431 -4.0554,-1.398431 -4.6848,0 -7.9011,3.531041 l -0.8741,-0.83906 q 1.2936,-2.20253 4.0904,-3.635923 2.7969,-1.363473 5.8035,-1.363473 6.5377,0 6.5377,7.132004 v 18.179616 q -1.6082,0.06992 -2.692,0.419531 l 0.1049,-1.852923 q -1.748,1.852923 -4.1603,1.852923 -2.7619,0 -4.6149,-2.167571 -1.8878,-2.167568 -1.8878,-4.894512 0,-3.146471 2.3074,-5.383963 2.2375,-2.237491 5.9783,-2.237491 1.1886,0 2.3773,0.314648 z" />
  <path
     inkscape:connector-curvature="0"
     id="path871"
     style="font-style:normal;font-variant:normal;font-weight:normal;font-stretch:normal;font-size:46.86946487px;line-height:1.25;font-family:'Colonna MT';-inkscape-font-specification:'Colonna MT';letter-spacing:0px;word-spacing:0px;fill:#016565;fill-opacity:1;stroke:none;stroke-width:1.49166071"
     d="m 925.44729,58.925412 q -3.9856,5.139239 -3.9856,13.669674 0,9.99879 4.9295,15.033145 -3.7408,-1.573236 -5.9433,-5.69861 -2.2026,-4.090415 -2.2026,-9.229652 0,-3.531041 1.1537,-6.502709 1.0838,-2.936707 2.5871,-4.579865 1.3985,-1.573235 3.4612,-2.691983 z m 29.0873,24.332719 h 0.6993 l -1.1188,5.908375 q -3.2514,1.25859 -6.258,1.852923 -3.0066,0.594333 -5.8035,0.594333 -8.4605,0 -13.2501,-4.929473 -4.7896,-4.894511 -4.7896,-14.229046 0,-9.299572 5.1392,-14.229044 5.1043,-4.894514 13.4949,-4.894514 6.0831,0 12.3062,2.202531 -0.2797,4.405062 -0.2797,5.209159 0,0.734177 0.035,1.433393 v 0.83906 q 0,1.817962 -0.1748,3.461119 h -0.5944 q -2.1676,-10.558162 -12.0964,-10.558162 -6.7125,0 -10.6981,4.3701 -3.9855,4.33514 -3.9855,12.515966 0,7.166965 3.6709,11.641947 3.6359,4.474983 10.9777,4.474983 4.0554,0 7.4117,-1.608197 3.3213,-1.538275 5.314,-4.055453 z" />
  <path
     inkscape:connector-curvature="0"
     id="path873"
     style="font-style:normal;font-variant:normal;font-weight:normal;font-stretch:normal;font-size:46.86946487px;line-height:1.25;font-family:'Colonna MT';-inkscape-font-specification:'Colonna MT';letter-spacing:0px;word-spacing:0px;fill:#016565;fill-opacity:1;stroke:none;stroke-width:1.49166071"
     d="m 963.83419,78.083932 q -2.2025,2.761904 -2.2025,6.048219 0,3.880649 2.727,6.362867 -2.1327,-0.489452 -3.7758,-2.132611 -1.7131,-1.608196 -1.7131,-4.195295 0,-4.509944 4.9644,-6.08318 z m 22.4798,13.180223 -6.7124,-0.419531 V 72.699969 q 0,-2.761903 -0.5245,-4.055452 -0.5943,-1.328511 -2.0626,-2.272452 3.0416,0.594334 4.1254,2.167569 1.0837,1.608198 1.0837,5.768532 v 10.802889 q 0,2.761903 0.7692,3.950569 0.7341,1.188666 3.3212,1.573235 z m -11.6069,-3.321277 v -9.124769 q -1.1537,-0.13984 -1.9579,-0.13984 -2.7618,0 -4.3001,1.678119 -1.5383,1.71308 -1.5383,3.915609 0,1.992765 1.2935,3.391197 1.3286,1.468354 3.2164,1.468354 1.6782,0 3.2864,-1.188666 z m 0,-11.047612 v -3.705845 q 0,-2.517178 -1.0139,-3.950571 -1.0488,-1.398431 -4.0555,-1.398431 -4.6847,0 -7.9011,3.531041 l -0.874,-0.83906 q 1.2935,-2.20253 4.0904,-3.635923 2.7969,-1.363473 5.8035,-1.363473 6.5377,0 6.5377,7.132004 v 18.179616 q -1.6082,0.06992 -2.692,0.419531 l 0.1048,-1.852923 q -1.748,1.852923 -4.1603,1.852923 -2.7619,0 -4.6148,-2.167571 -1.8879,-2.167568 -1.8879,-4.894512 0,-3.146471 2.3074,-5.383963 2.2375,-2.237491 5.9783,-2.237491 1.1887,0 2.3773,0.314648 z" />
  <path
     inkscape:connector-curvature="0"
     id="path875"
     style="font-style:normal;font-variant:normal;font-weight:normal;font-stretch:normal;font-size:46.86946487px;line-height:1.25;font-family:'Colonna MT';-inkscape-font-specification:'Colonna MT';letter-spacing:0px;word-spacing:0px;fill:#016565;fill-opacity:1;stroke:none;stroke-width:1.49166071"
     d="m 1018.3382,90.844624 v -17.06087 q 0,-3.531041 -0.4895,-5.104277 -0.4545,-1.433392 -2.2375,-2.552138 2.3773,0.174804 3.8108,1.643158 1.4334,1.503315 1.4334,6.817355 v 8.145869 q 0,3.006627 0.3495,4.265215 0.3147,1.363471 1.4684,2.342375 1.1188,1.013863 2.657,1.293548 v 0.629296 q -1.1537,-0.104883 -3.8457,-0.279688 -2.657,-0.139839 -3.1464,-0.139839 z M 996.10309,65.917572 v 24.927052 q -3.601,0.174805 -6.258,0.419531 v -0.629296 q 1.5732,-0.524412 2.6221,-1.887881 1.0488,-1.363472 1.0488,-6.537671 v -8.600358 q 0,-3.496079 -0.8041,-5.174198 -0.8391,-1.573235 -3.3912,-2.307412 v -0.594335 q 1.6432,0.209766 6.7824,0.384568 z m 2.4822,24.927052 V 65.917572 q 1.85291,-0.06992 2.79691,-0.174802 l -0.2447,1.852923 q 4.37,-2.202531 8.1108,-2.202531 2.4123,0 4.1254,1.188668 1.6782,1.223627 2.0977,2.761903 0.4195,1.573235 0.4195,5.104276 v 16.396615 q -1.4334,0.06992 -2.7969,0.209765 0.2448,-4.3701 0.2448,-6.11814 V 73.783754 q 0,-3.426157 -0.9789,-4.824591 -1.0139,-1.433392 -3.636,-1.433392 -2.7968,0 -7.5864,2.307412 v 14.229046 q 0,5.593729 4.1253,6.57263 v 0.629296 q -4.1953,-0.419531 -6.67751,-0.419531 z" />
  <path
     inkscape:connector-curvature="0"
     id="path877"
     style="font-style:normal;font-variant:normal;font-weight:normal;font-stretch:normal;font-size:46.86946487px;line-height:1.25;font-family:'Colonna MT';-inkscape-font-specification:'Colonna MT';letter-spacing:0px;word-spacing:0px;fill:#016565;fill-opacity:1;stroke:none;stroke-width:1.49166071"
     d="M 1036.5177,82.733721 V 65.917572 h 2.6221 v 17.340559 q 0,6.362867 4.44,6.362867 1.4334,0 2.3423,-0.559374 v 0.769136 q -1.783,1.468356 -3.9156,1.468356 -1.9578,0 -3.2863,-1.188669 -1.4334,-1.223627 -1.783,-2.691981 -0.4195,-1.468353 -0.4195,-4.684745 z m -4.9295,-0.594335 V 65.917572 h 2.6221 v 17.44544 q 0,3.845688 0.7691,5.488847 0.7342,1.71308 2.4473,2.447257 h -1.0838 q -2.3424,-1.048826 -3.566,-2.936709 -1.1887,-1.852921 -1.1887,-6.223021 z m 1.3635,-27.863759 4.9295,4.579865 -1.6782,1.74804 -4.8945,-4.544905 z m 3.2513,-3.49608 4.8945,4.579865 -1.6431,1.74804 -4.9295,-4.544903 z" />
  <path
     inkscape:connector-curvature="0"
     id="path879"
     style="font-style:normal;font-variant:normal;font-weight:normal;font-stretch:normal;font-size:46.86946487px;line-height:1.25;font-family:'Colonna MT';-inkscape-font-specification:'Colonna MT';letter-spacing:0px;word-spacing:0px;fill:#016565;fill-opacity:1;stroke:none;stroke-width:1.49166071"
     d="m 1077.2121,90.844624 v -17.06087 q 0,-3.531041 -0.4895,-5.104277 -0.4544,-1.433392 -2.2374,-2.552138 2.3773,0.174804 3.8107,1.643158 1.4334,1.503315 1.4334,6.817355 v 8.145869 q 0,3.006627 0.3496,4.265215 0.3146,1.363471 1.4683,2.342375 1.1188,1.013863 2.6571,1.293548 v 0.629296 q -1.1537,-0.104883 -3.8457,-0.279688 -2.657,-0.139839 -3.1465,-0.139839 z M 1054.977,65.917572 v 24.927052 q -3.6009,0.174805 -6.2579,0.419531 v -0.629296 q 1.5732,-0.524412 2.622,-1.887881 1.0488,-1.363472 1.0488,-6.537671 v -8.600358 q 0,-3.496079 -0.8041,-5.174198 -0.839,-1.573235 -3.3912,-2.307412 v -0.594335 q 1.6432,0.209766 6.7824,0.384568 z m 2.4823,24.927052 V 65.917572 q 1.8529,-0.06992 2.7968,-0.174802 l -0.2447,1.852923 q 4.3701,-2.202531 8.1109,-2.202531 2.4123,0 4.1254,1.188668 1.6781,1.223627 2.0976,2.761903 0.4196,1.573235 0.4196,5.104276 v 16.396615 q -1.4334,0.06992 -2.7969,0.209765 0.2447,-4.3701 0.2447,-6.11814 V 73.783754 q 0,-3.426157 -0.9789,-4.824591 -1.0139,-1.433392 -3.6359,-1.433392 -2.7969,0 -7.5865,2.307412 v 14.229046 q 0,5.593729 4.1254,6.57263 v 0.629296 q -4.1953,-0.419531 -6.6775,-0.419531 z" />
  <path
     inkscape:connector-curvature="0"
     id="path881"
     style="font-style:normal;font-variant:normal;font-weight:normal;font-stretch:normal;font-size:46.86946487px;line-height:1.25;font-family:'Colonna MT';-inkscape-font-specification:'Colonna MT';letter-spacing:0px;word-spacing:0px;fill:#016565;fill-opacity:1;stroke:none;stroke-width:1.49166071"
     d="m 1093.4339,67.665615 q -3.2513,3.600961 -3.2513,10.628083 0,7.02712 3.2513,10.767926 -6.0482,-3.426158 -6.0482,-10.907769 0,-7.376731 6.0482,-10.48824 z m 19.2285,21.011441 q 3.2163,-3.600964 3.2163,-9.99879 0,-3.46112 -0.7691,-6.502708 -0.804,-3.111512 -2.4472,-4.544905 6.1181,3.391199 6.1181,10.418318 0,6.747435 -6.1181,10.628085 z m -17.1658,-10.593124 q 0,6.397829 1.9578,8.670279 1.9578,2.272452 5.5588,2.272452 3.3912,0 5.4888,-2.377334 2.0628,-2.377334 2.0628,-8.67028 0,-10.593121 -7.5516,-10.593121 -7.5166,0 -7.5166,10.698004 z m -2.9367,0.559374 q 0,-6.782396 2.7619,-10.103672 2.7969,-3.356237 7.6914,-3.356237 4.5448,0 7.5166,2.971667 2.9716,2.971669 2.9716,9.823985 0,7.516574 -3.1814,10.488242 -3.2163,3.006628 -7.4117,3.006628 -4.3002,0 -7.3068,-3.146472 -3.0416,-3.111511 -3.0416,-9.684141 z" />
  <g
     style="font-style:normal;font-weight:normal;font-size:39.05788422px;line-height:1.25;font-family:sans-serif;letter-spacing:0px;word-spacing:0px;fill:#c12f2f;fill-opacity:1;stroke:none;stroke-width:0.97644717"
     transform="matrix(3.5401735,0,0,3.5401735,-280.19544,-1963.5879)"
     id="g910">
    <path
       inkscape:connector-curvature="0"
       id="path825"
       style="font-style:normal;font-variant:normal;font-weight:normal;font-stretch:normal;font-size:48px;line-height:1.25;font-family:'Colonna MT';-inkscape-font-specification:'Colonna MT';letter-spacing:0px;word-spacing:0px;fill:#c12f2f;fill-opacity:1;stroke:none"
       d="m 83.673218,562.71466 h 0.773437 v 24.70313 H 82.89978 q -0.820312,0 -3.46875,0.28125 v -0.42188 q 1.265625,-0.32812 1.921875,-1.19531 0.679688,-0.89063 0.914063,-2.03906 0.257812,-1.21875 0.257812,-5.15625 v -9.82032 q 0,-3.39843 -0.914062,-4.66406 -0.914063,-1.26562 -2.179688,-1.54687 v -0.42188 q 1.429688,0.0937 4.242188,0.28125 z m 11.835937,24.70313 h -9.375 v -24.70313 h 6.820313 q 1.921875,0 7.265622,-0.28125 -0.0469,0.70313 -0.0469,1.05469 0,0.46875 0.11719,2.17969 0.0703,1.14843 0.0703,1.24218 v 0.58594 h -0.39844 q -0.84375,-2.01562 -1.921875,-2.60156 -1.078125,-0.5625 -4.054687,-0.5625 h -3.726563 q -0.890625,0 -1.640625,0.11719 -0.421875,0.79687 -0.492187,3.79687 l -0.04687,1.59375 v 3.82031 h 5.0625 q 2.859375,0 3.796875,-0.49218 0.9375,-0.49219 1.5,-2.34375 h 0.515625 q -0.1875,2.10937 -0.1875,3.65625 0,0.98437 0.140625,2.57812 0.04687,0.46875 0.117187,1.85156 H 98.50912 q -0.210937,-2.0625 -1.242187,-2.83593 -1.054688,-0.77344 -3.304688,-0.77344 h -5.882812 v 5.10937 q 0,2.95313 0.328125,5.17969 0.984375,0.14063 2.109375,0.14063 h 3.5625 q 2.90625,0 4.382812,-0.65625 1.546885,-0.67969 3.046885,-3.02344 h 0.46875 q -0.25782,1.07812 -0.77344,2.48437 -0.63281,1.82813 -0.91406,3.16407 -2.671885,-0.28125 -4.78126,-0.28125 z" />
    <path
       inkscape:connector-curvature="0"
       id="path827"
       style="font-style:normal;font-variant:normal;font-weight:normal;font-stretch:normal;font-size:48px;line-height:1.25;font-family:'Colonna MT';-inkscape-font-specification:'Colonna MT';letter-spacing:0px;word-spacing:0px;fill:#c12f2f;fill-opacity:1;stroke:none"
       d="m 116.20447,586.52716 0.11719,0.49219 q -1.10157,0.86719 -2.46094,0.86719 -1.92188,0 -2.83594,-1.47657 -0.91406,-1.45312 -0.91406,-4.94531 v -22.38281 q 1.40625,-0.0469 1.99219,-0.11719 -0.25782,4.00781 -0.25782,5.76563 v 15.70312 q 0,2.88281 0.14063,3.9375 0.14062,1.07813 0.86719,1.73438 0.70312,0.70312 1.96875,0.70312 0.67968,0 1.38281,-0.28125 z m -7.64063,-27.44531 v 22.35937 q 0,3.1875 0.35157,4.17188 0.35156,1.00781 1.125,1.99219 -1.28907,-0.375 -1.99219,-1.19532 -0.70313,-0.77343 -0.96094,-2.08593 -0.23437,-1.17188 -0.23437,-4.17188 v -15.70312 q 0,-2.13282 -0.16407,-2.88282 -0.1875,-0.84375 -0.84375,-1.5 -0.65625,-0.65625 -1.71093,-0.84375 v -0.39843 q 0.72656,0 2.22656,0.14062 0.75,0.0703 2.20312,0.11719 z" />
    <path
       inkscape:connector-curvature="0"
       id="path829-8"
       style="font-style:normal;font-variant:normal;font-weight:normal;font-stretch:normal;font-size:48px;line-height:1.25;font-family:'Colonna MT';-inkscape-font-specification:'Colonna MT';letter-spacing:0px;word-spacing:0px;fill:#c12f2f;fill-opacity:1;stroke:none"
       d="m 123.56384,581.98029 v -11.27344 h 1.75782 v 11.625 q 0,4.26562 2.97656,4.26562 0.96094,0 1.57031,-0.375 v 0.51563 q -1.19531,0.98437 -2.625,0.98437 -1.3125,0 -2.20312,-0.79687 -0.96094,-0.82031 -1.19532,-1.80469 -0.28125,-0.98437 -0.28125,-3.14062 z m -3.30468,-0.39844 v -10.875 h 1.75781 v 11.69531 q 0,2.57813 0.51562,3.67969 0.49219,1.14844 1.64063,1.64062 h -0.72656 q -1.57032,-0.70312 -2.39063,-1.96875 -0.79687,-1.24218 -0.79687,-4.17187 z m 0.91406,-18.67969 3.30469,3.07031 -1.125,1.17188 -3.28125,-3.04688 z m 2.17969,-2.34375 3.28125,3.07031 -1.10157,1.17188 -3.30468,-3.04688 z" />
  </g>
  <g
     style="font-style:normal;font-weight:normal;font-size:39.05788422px;line-height:1.25;font-family:sans-serif;letter-spacing:0px;word-spacing:0px;fill:#c12f2f;fill-opacity:1;stroke:none;stroke-width:0.97644717"
     transform="matrix(1.2862329,0,0,1.2862329,173.20766,-1.2601267)"
     featurekey="nYIUkx-0"
     id="SvgjsG1490-1-8">
    <g
       id="g17-6-3">
      <path
         inkscape:connector-curvature="0"
         id="path3-8-1"
         d="m 50.655,23.027 c 0.358,-0.238 9.061,-11.923 9.061,-11.923 3.1,10.373 -2.504,18.361 -2.504,18.361 8.465,-11.446 2.504,-20.984 2.504,-20.984 -3.1,5.604 -10.134,13.473 -10.134,13.473 0,0 0.716,1.311 1.073,1.073 z" />
      <path
         inkscape:connector-curvature="0"
         id="path5-00-6"
         d="m 59.001,15.754 c -1.55,0 -1.55,0 -1.55,0 0,0 -3.577,4.829 -3.696,9.657 0,0 1.013,2.861 1.848,0.358 0.835,-2.504 4.173,-8.525 4.173,-8.525 0,0 0.775,-1.49 -0.775,-1.49 z" />
      <path
         inkscape:connector-curvature="0"
         id="path7-14-9"
         d="m 36.587,39.6 c 0.773,1.631 1.881,1.284 2.441,0.962 0.666,0.728 1.772,1.171 4.474,1.005 3.875,-0.238 6.438,-2.983 6.438,-2.983 l 0.596,-0.713 c 0,0 0.656,-1.073 0,-1.523 -0.656,-0.45 -2.444,-0.026 -1.788,0.272 0.656,0.298 0,1.823 0,1.823 -1.073,1.763 -5.663,2.39 -5.663,2.39 0,0 -2.851,0.352 -3.268,-0.662 -0.226,-0.549 0.324,-2.267 -1.024,-2.479 -0.543,-0.085 -0.179,-0.656 -0.477,-1.133 -0.298,-0.477 -1.162,0.111 -1.451,0.287 0.287,-0.566 -0.04,-2.314 -0.04,-2.314 0.671,-0.402 2.817,-3.588 3.848,-5.156 h 1.531 l 0.399,-0.865 c -0.898,-0.596 0,-2.742 0,-2.742 0.282,-1.361 -1.322,-0.25 -2.259,0.494 -0.013,-0.23 -0.002,-0.375 -0.002,-0.375 0,0 1.669,-3.875 2.261,-4.948 0.592,-1.073 3.223,-2.981 3.998,-3.636 0.775,-0.656 0.477,-1.788 0.477,-1.788 -0.476,-0.214 -0.912,-0.218 -1.266,-0.147 -0.147,-0.282 -1.68,-3.275 -2.191,-6.112 L 41.713,6.753 c 0,0 -0.358,-0.06 -0.775,0.417 -0.417,0.477 -1.669,1.013 -1.55,1.312 0.119,0.298 0.536,0.417 0.536,1.133 0,0.712 1.714,8.454 3.2,8.639 l -0.521,0.72 -1.293,2.504 c 0,0 -2.578,3.696 -2.339,4.411 0.238,0.715 0.775,2.444 0.775,2.742 0,0.298 -3.517,5.425 -3.636,5.723 -0.119,0.298 0.119,2.146 0.119,2.146 -0.273,0.542 -1.023,1.715 -1.073,1.942 -0.179,0.81 1.431,1.158 1.431,1.158 z m 5.126,-27.84 c 0,0 -0.656,-3.219 -0.06,-2.742 0.596,0.477 0.588,1.073 0.95,1.252 0.362,0.179 0.839,-0.179 0.779,0.417 -0.054,0.536 1.446,4.2 1.75,4.937 -0.128,0.073 -1.382,1.763 -1.382,1.763 -0.648,-1.013 -1.991,-3.37 -2.037,-5.627 z" />
      <path
         inkscape:connector-curvature="0"
         id="path9-1-7"
         d="m 79.516,62.372 c -1.944,-0.97 -3.519,-1.208 -4.664,-1.179 -0.366,0.009 -0.688,0.045 -0.963,0.094 0.934,-3.015 1.781,-6.456 2.161,-9.884 1.073,-9.657 -1.669,-15.857 -3.935,-19.315 -1.247,-1.904 -2.53,-2.506 -3.432,-2.662 -0.901,-1.38 -1.775,-2.187 -2.172,-2.63 C 65.08,25.2 61.265,24.219 61.265,24.219 73.188,33.757 69.73,41.149 66.988,54.503 64.246,67.856 52.591,81.27 52.591,81.27 l 1.163,0.775 c 0,0 7.273,-5.604 14.546,-26.468 4.568,-13.105 3.257,-20.47 1.295,-24.533 4.226,3.5 6.655,8.419 4.905,20.36 -2.027,13.83 -7.034,18.719 -7.034,18.719 l 2.742,0.715 c 0,0 4.65,-2.968 5.127,-4.822 0.282,-1.095 0.062,-2.575 -0.165,-3.606 0.728,0.146 3.348,0.744 3.861,1.871 0.596,1.311 1.073,5.484 -1.312,9.657 -2.385,4.173 -4.181,8.346 -6.323,8.584 -2.142,0.238 1.435,2.027 1.435,2.027 0,0 4.173,-5.246 5.961,-9.777 1.79,-4.531 5.025,-10.254 0.724,-12.4 z m -5.492,4.292 -2.614,1.461 c 0.512,-1.23 1.135,-2.818 1.762,-4.641 l 1.471,-0.906 z" />
      <path
         inkscape:connector-curvature="0"
         id="path11-5-8"
         d="m 28.241,90.152 c 4.411,-0.477 10.015,-3.219 13.07,-4.173 3.055,-0.954 6.126,-3.1 6.961,-3.935 0.835,-0.835 -1.401,-1.908 -1.401,-1.908 0,0 0,0 -0.507,1.073 -0.104,0.219 -0.785,0.656 -1.818,1.211 -0.676,-1.004 -1.614,-2.839 -1.941,-5.623 -0.533,-4.531 -1.01,-14.191 3.223,-16.215 4.233,-2.024 5.905,-0.815 5.665,0.606 0,0 2.267,-1.56 0,-2.394 -2.267,-0.835 -5.931,0.715 -7.02,1.908 -1.089,1.192 -3.683,3.577 -3.161,14.784 0.217,4.652 0.939,6.797 1.71,7.715 -4.507,2.224 -12.196,5.42 -14.303,5.757 -2.981,0.477 -10.134,-0.477 -11.684,-0.119 -1.55,0.358 -0.596,1.312 -0.596,1.312 0,0 7.39,0.478 11.802,0.001 z" />
      <path
         inkscape:connector-curvature="0"
         id="path13-87-2"
         d="m 61.148,85.25 c -1.192,0.106 -8.108,1.563 -4.285,1.802 0.762,0.048 1.532,0.09 2.288,0.125 -0.094,0.072 -0.185,0.149 -0.269,0.232 -0.835,0.835 -3.934,2.385 -6.289,2.954 -2.355,0.57 -8.733,-0.093 -9.989,0 -1.256,0.093 -7.925,1.457 -8.521,1.338 C 33.487,91.582 24.426,91.463 21.206,91.224 18.193,91.001 18,90.441 17.988,90.37 c 0.131,2.707 6.679,2.285 9.537,2.523 2.861,0.238 7.617,0 7.617,0 0,0 6.81,-1.55 12.771,-1.185 5.961,0.365 6.915,-0.961 8.949,-1.915 1.249,-0.586 2.577,-1.754 3.418,-2.57 2.581,0.094 4.837,0.078 5.755,-0.172 1.312,-0.358 0.835,-2.504 0.835,-2.504 -2.384,-0.357 -4.53,0.597 -5.722,0.703 z" />
      <path
         inkscape:connector-curvature="0"
         id="path15-6-5"
         d="m 46.87,29.465 c 0,0 0.507,0.715 0,1.431 -0.507,0.715 1.587,1.431 1.587,1.431 l 1.602,-1.908 c 0,0 -2.204,0.238 -3.189,-0.954 z" />
    </g>
  </g>
</svg>
