<svg width="374.64293127347565" height="114.68389124984263" viewBox="0 -2.29 374.64293127347565 114.68389124984263" class="css-1j8o68f"><defs id="SvgjsDefs1489"></defs><g id="SvgjsG1490" featurekey="nYIUkx-0" transform="matrix(1.3031252292683644,0,0,1.3031252292683644,-11.043587935874942,-11.088512589493705)" fill="#c12f2f"><g xmlns="http://www.w3.org/2000/svg"><path d="M50.655,23.027c0.358-0.238,9.061-11.923,9.061-11.923c3.1,10.373-2.504,18.361-2.504,18.361   c8.465-11.446,2.504-20.984,2.504-20.984c-3.1,5.604-10.134,13.473-10.134,13.473S50.298,23.265,50.655,23.027z"></path><path d="M59.001,15.754c-1.55,0-1.55,0-1.55,0s-3.577,4.829-3.696,9.657c0,0,1.013,2.861,1.848,0.358   c0.835-2.504,4.173-8.525,4.173-8.525S60.551,15.754,59.001,15.754z"></path><path d="M36.587,39.6c0.773,1.631,1.881,1.284,2.441,0.962c0.666,0.728,1.772,1.171,4.474,1.005   c3.875-0.238,6.438-2.983,6.438-2.983l0.596-0.713c0,0,0.656-1.073,0-1.523c-0.656-0.45-2.444-0.026-1.788,0.272   c0.656,0.298,0,1.823,0,1.823c-1.073,1.763-5.663,2.39-5.663,2.39s-2.851,0.352-3.268-0.662c-0.226-0.549,0.324-2.267-1.024-2.479   c-0.543-0.085-0.179-0.656-0.477-1.133c-0.298-0.477-1.162,0.111-1.451,0.287c0.287-0.566-0.04-2.314-0.04-2.314   c0.671-0.402,2.817-3.588,3.848-5.156h1.531l0.399-0.865c-0.898-0.596,0-2.742,0-2.742c0.282-1.361-1.322-0.25-2.259,0.494   c-0.013-0.23-0.002-0.375-0.002-0.375s1.669-3.875,2.261-4.948c0.592-1.073,3.223-2.981,3.998-3.636   c0.775-0.656,0.477-1.788,0.477-1.788c-0.476-0.214-0.912-0.218-1.266-0.147c-0.147-0.282-1.68-3.275-2.191-6.112l-1.908-2.504   c0,0-0.358-0.06-0.775,0.417c-0.417,0.477-1.669,1.013-1.55,1.312c0.119,0.298,0.536,0.417,0.536,1.133   c0,0.712,1.714,8.454,3.2,8.639l-0.521,0.72l-1.293,2.504c0,0-2.578,3.696-2.339,4.411c0.238,0.715,0.775,2.444,0.775,2.742   c0,0.298-3.517,5.425-3.636,5.723c-0.119,0.298,0.119,2.146,0.119,2.146c-0.273,0.542-1.023,1.715-1.073,1.942   C34.977,39.252,36.587,39.6,36.587,39.6z M41.713,11.76c0,0-0.656-3.219-0.06-2.742c0.596,0.477,0.588,1.073,0.95,1.252   c0.362,0.179,0.839-0.179,0.779,0.417c-0.054,0.536,1.446,4.2,1.75,4.937c-0.128,0.073-1.382,1.763-1.382,1.763   C43.102,16.374,41.759,14.017,41.713,11.76z"></path><path d="M79.516,62.372c-1.944-0.97-3.519-1.208-4.664-1.179c-0.366,0.009-0.688,0.045-0.963,0.094   c0.934-3.015,1.781-6.456,2.161-9.884c1.073-9.657-1.669-15.857-3.935-19.315c-1.247-1.904-2.53-2.506-3.432-2.662   c-0.901-1.38-1.775-2.187-2.172-2.63c-1.431-1.596-5.246-2.577-5.246-2.577c11.923,9.538,8.465,16.93,5.723,30.284   c-2.742,13.353-14.397,26.767-14.397,26.767l1.163,0.775c0,0,7.273-5.604,14.546-26.468c4.568-13.105,3.257-20.47,1.295-24.533   c4.226,3.5,6.655,8.419,4.905,20.36c-2.027,13.83-7.034,18.719-7.034,18.719l2.742,0.715c0,0,4.65-2.968,5.127-4.822   c0.282-1.095,0.062-2.575-0.165-3.606c0.728,0.146,3.348,0.744,3.861,1.871c0.596,1.311,1.073,5.484-1.312,9.657   c-2.385,4.173-4.181,8.346-6.323,8.584c-2.142,0.238,1.435,2.027,1.435,2.027s4.173-5.246,5.961-9.777   C80.582,70.241,83.817,64.518,79.516,62.372z M74.024,66.664l-2.614,1.461c0.512-1.23,1.135-2.818,1.762-4.641l1.471-0.906   L74.024,66.664z"></path><path d="M28.241,90.152c4.411-0.477,10.015-3.219,13.07-4.173c3.055-0.954,6.126-3.1,6.961-3.935   c0.835-0.835-1.401-1.908-1.401-1.908s0,0-0.507,1.073c-0.104,0.219-0.785,0.656-1.818,1.211c-0.676-1.004-1.614-2.839-1.941-5.623   c-0.533-4.531-1.01-14.191,3.223-16.215c4.233-2.024,5.905-0.815,5.665,0.606c0,0,2.267-1.56,0-2.394   c-2.267-0.835-5.931,0.715-7.02,1.908c-1.089,1.192-3.683,3.577-3.161,14.784c0.217,4.652,0.939,6.797,1.71,7.715   c-4.507,2.224-12.196,5.42-14.303,5.757c-2.981,0.477-10.134-0.477-11.684-0.119c-1.55,0.358-0.596,1.312-0.596,1.312   S23.829,90.629,28.241,90.152z"></path><path d="M61.148,85.25c-1.192,0.106-8.108,1.563-4.285,1.802c0.762,0.048,1.532,0.09,2.288,0.125   c-0.094,0.072-0.185,0.149-0.269,0.232c-0.835,0.835-3.934,2.385-6.289,2.954c-2.355,0.57-8.733-0.093-9.989,0   c-1.256,0.093-7.925,1.457-8.521,1.338c-0.596-0.119-9.657-0.238-12.877-0.477c-3.013-0.223-3.206-0.783-3.218-0.854   c0.131,2.707,6.679,2.285,9.537,2.523c2.861,0.238,7.617,0,7.617,0s6.81-1.55,12.771-1.185c5.961,0.365,6.915-0.961,8.949-1.915   c1.249-0.586,2.577-1.754,3.418-2.57c2.581,0.094,4.837,0.078,5.755-0.172c1.312-0.358,0.835-2.504,0.835-2.504   C64.486,84.19,62.34,85.144,61.148,85.25z"></path><path d="M46.87,29.465c0,0,0.507,0.715,0,1.431c-0.507,0.715,1.587,1.431,1.587,1.431l1.602-1.908   C50.059,30.419,47.855,30.657,46.87,29.465z"></path></g></g><g id="SvgjsG1491" featurekey="PXhRQw-0" transform="matrix(1.2709773812717982,0,0,1.2709773812717982,109.237414298496,38.009626827202084)" fill="#016565"><path d="M0.6 5.5 l5.64 0 l0.5 2.7 l-3.16 0 l0 3.44 l2.4 0 l0 2.5 l-2.4 0 l0 3.16 l3.04 0 l-0.5 2.7 l-5.52 0 l0 -14.5 z M7.74 5.5 l2.98 0 l0 11.8 l2.92 0 l-0.5 2.7 l-5.4 0 l0 -14.5 z M14.540000000000001 5.5 l2.9 0 l0 14.5 l-2.9 0 l0 -14.5 z M23.4 20 c-0.84 0 -1.4267 -0.17334 -1.76 -0.52 s-0.5 -0.92 -0.5 -1.72 l0 -10.48 c0 -0.57334 0.16334 -1.0133 0.49 -1.32 s0.73 -0.46 1.21 -0.46 l3.82 0 l0.5 2.7 l-2.78 0 c-0.17334 0 -0.26 0.09334 -0.26 0.28 l0 8.54 c0 0.18666 0.08666 0.28 0.26 0.28 l2.78 0 l-0.52 2.7 l-3.24 0 z M31.3 8.04 c-0.17334 0 -0.26 0.09334 -0.26 0.28 l0 8.84 c0 0.10666 0.01666 0.18332 0.05 0.22998 s0.11 0.07 0.23 0.07 l1.1 0 c0.12 0 0.19666 -0.02334 0.23 -0.07 s0.05 -0.12332 0.05 -0.22998 l0 -8.84 c0 -0.18666 -0.08666 -0.28 -0.26 -0.28 l-1.14 0 z M35.64 17.94 c0 0.28 -0.03334 0.54334 -0.1 0.79 s-0.18 0.46332 -0.34 0.64998 s-0.37334 0.33666 -0.64 0.45 s-0.6 0.17 -1 0.17 l-3.36 0 c-0.4 0 -0.73334 -0.05666 -1 -0.17 s-0.48 -0.26334 -0.64 -0.45 s-0.27334 -0.40332 -0.34 -0.64998 s-0.1 -0.51 -0.1 -0.79 l0 -10.56 c0 -0.57334 0.15666 -1.03 0.47 -1.37 s0.81 -0.51 1.49 -0.51 l3.6 0 c0.68 0 1.1767 0.17 1.49 0.51 s0.47 0.79666 0.47 1.37 l0 10.56 z M39.660000000000004 13.16 l0 6.84 l-2.82 0 l0 -14.5 l3.06 0 l1.58 6.12 l1.58 -6.12 l3.08 0 l0 14.5 l-2.82 0 l0 -6.84 l-1.84 5.8 z M50.22 8.04 l0 5.7 l1.44 0 c0.12 0 0.19666 -0.02334 0.23 -0.07 s0.05 -0.12332 0.05 -0.22998 l0 -5.12 c0 -0.18666 -0.08666 -0.28 -0.26 -0.28 l-1.46 0 z M53.04 5.5 c0.57334 0 1.0033 0.15998 1.29 0.47998 s0.43 0.74666 0.43 1.28 l0 6.94 c0 0.28 -0.03 0.53666 -0.09 0.77 s-0.17 0.43668 -0.33 0.61002 s-0.37334 0.31 -0.64 0.41 s-0.6 0.15 -1 0.15 l-2.48 0 l0 3.86 l-2.88 0 l0 -14.5 l5.7 0 z M59.080000000000005 8.04 c-0.17334 0 -0.26 0.09334 -0.26 0.28 l0 8.84 c0 0.10666 0.01666 0.18332 0.05 0.22998 s0.11 0.07 0.23 0.07 l1.1 0 c0.12 0 0.19666 -0.02334 0.23 -0.07 s0.05 -0.12332 0.05 -0.22998 l0 -8.84 c0 -0.18666 -0.08666 -0.28 -0.26 -0.28 l-1.14 0 z M63.42 17.94 c0 0.28 -0.03334 0.54334 -0.1 0.79 s-0.18 0.46332 -0.34 0.64998 s-0.37334 0.33666 -0.64 0.45 s-0.6 0.17 -1 0.17 l-3.36 0 c-0.4 0 -0.73334 -0.05666 -1 -0.17 s-0.48 -0.26334 -0.64 -0.45 s-0.27334 -0.40332 -0.34 -0.64998 s-0.1 -0.51 -0.1 -0.79 l0 -10.56 c0 -0.57334 0.15666 -1.03 0.47 -1.37 s0.81 -0.51 1.49 -0.51 l3.6 0 c0.68 0 1.1767 0.17 1.49 0.51 s0.47 0.79666 0.47 1.37 l0 10.56 z M67.52000000000001 8.04 l0 5 l1.42 0 c0.18666 0 0.28 -0.1 0.28 -0.3 l0 -4.4 c0 -0.2 -0.09334 -0.3 -0.28 -0.3 l-1.42 0 z M72.08000000000001 14.1 c0 0.32 -0.11 0.61334 -0.33 0.88 s-0.54334 0.4 -0.97 0.4 l1.52 4.62 l-3 0 l-1.4 -4.62 l-0.38 0 l0 4.62 l-2.9 0 l0 -14.5 l5.5 0 c0.68 0 1.1767 0.17 1.49 0.51 s0.47 0.79666 0.47 1.37 l0 6.72 z M79 5.5 l0.72 2.7 l-1.94 0 l0 11.8 l-2.96 0 l0 -11.8 l-1.94 0 l0.76 -2.7 l5.36 0 z M82.1 18.2 l-0.26 1.8 l-2.92 0 l2.62 -14.5 l3.1 0 l2.62 14.5 l-2.92 0 l-0.26 -1.8 l-1.98 0 z M82.42 15.9 l1.34 0 l-0.66 -5.14 z M90.88 13.16 l0 6.84 l-2.82 0 l0 -14.5 l3.06 0 l1.58 6.12 l1.58 -6.12 l3.08 0 l0 14.5 l-2.82 0 l0 -6.84 l-1.84 5.8 z M98.55999999999999 5.5 l5.64 0 l0.5 2.7 l-3.16 0 l0 3.44 l2.4 0 l0 2.5 l-2.4 0 l0 3.16 l3.04 0 l-0.5 2.7 l-5.52 0 l0 -14.5 z M105.69999999999999 5.5 l2.76 0 l1.48 5.82 l0 -5.82 l2.98 0 l0 14.5 l-2.98 0 l-1.56 -6.06 l0 6.06 l-2.68 0 l0 -14.5 z M119.84 5.5 l0.72 2.7 l-1.94 0 l0 11.8 l-2.96 0 l0 -11.8 l-1.94 0 l0.76 -2.7 l5.36 0 z M122.93999999999998 18.2 l-0.26 1.8 l-2.92 0 l2.62 -14.5 l3.1 0 l2.62 14.5 l-2.92 0 l-0.26 -1.8 l-1.98 0 z M123.25999999999999 15.9 l1.34 0 l-0.66 -5.14 z M128.89999999999998 5.5 l2.98 0 l0 11.8 l2.92 0 l-0.5 2.7 l-5.4 0 l0 -14.5 z M135.7 5.5 l2.9 0 l0 14.5 l-2.9 0 l0 -14.5 z M140.51999999999998 20 l-0.51996 -2.7 l3.12 0 c0.22666 0 0.34 -0.1 0.34 -0.3 l0 -2.64 c0 -0.2 -0.04 -0.32 -0.12 -0.36 s-0.22 -0.06 -0.42 -0.06 l-1.5 0 c-0.21334 0 -0.41668 -0.01666 -0.61002 -0.05 s-0.36668 -0.11 -0.52002 -0.23 s-0.27334 -0.28666 -0.36 -0.5 s-0.13 -0.5 -0.13 -0.86 l0 -4.92 c0 -0.57334 0.15666 -1.03 0.47 -1.37 s0.81 -0.51 1.49 -0.51 l4 0 l0.5 2.7 l-3.28 0 c-0.24 0 -0.36 0.10666 -0.36 0.32 l0 2.64 c0 0.14666 0.03666 0.24666 0.11 0.3 s0.18334 0.08 0.33 0.08 l1.82 0 c0.46666 0 0.82332 0.11 1.07 0.33 s0.37 0.60334 0.37 1.15 l0 4.78 c0 0.8 -0.16334 1.3667 -0.49 1.7 s-0.90332 0.5 -1.73 0.5 l-3.58 0 z M153.04 5.5 l0.72 2.7 l-1.94 0 l0 11.8 l-2.96 0 l0 -11.8 l-1.94 0 l0.76 -2.7 l5.36 0 z M156.14000000000001 18.2 l-0.26 1.8 l-2.92 0 l2.62 -14.5 l3.1 0 l2.62 14.5 l-2.92 0 l-0.26 -1.8 l-1.98 0 z M156.46 15.9 l1.34 0 l-0.66 -5.14 z M166.86000000000004 20 c-0.84 0 -1.4267 -0.17334 -1.76 -0.52 s-0.5 -0.92 -0.5 -1.72 l0 -10.48 c0 -0.57334 0.16334 -1.0133 0.49 -1.32 s0.73 -0.46 1.21 -0.46 l3.82 0 l0.5 2.7 l-2.78 0 c-0.17334 0 -0.26 0.09334 -0.26 0.28 l0 8.54 c0 0.18666 0.08666 0.28 0.26 0.28 l2.78 0 l-0.52 2.7 l-3.24 0 z M174.40000000000003 18.2 l-0.26 1.8 l-2.92 0 l2.62 -14.5 l3.1 0 l2.62 14.5 l-2.92 0 l-0.26 -1.8 l-1.98 0 z M174.72000000000003 15.9 l1.34 0 l-0.66 -5.14 z M180.36000000000004 5.5 l2.76 0 l1.48 5.82 l0 -5.82 l2.98 0 l0 14.5 l-2.98 0 l-1.56 -6.06 l0 6.06 l-2.68 0 l0 -14.5 z M188.78000000000003 5.5 l2.9 0 l0 14.5 l-2.9 0 l0 -14.5 z M192.88000000000002 5.5 l2.76 0 l1.48 5.82 l0 -5.82 l2.98 0 l0 14.5 l-2.98 0 l-1.56 -6.06 l0 6.06 l-2.68 0 l0 -14.5 z M204.48000000000002 8.04 c-0.17334 0 -0.26 0.09334 -0.26 0.28 l0 8.84 c0 0.10666 0.01666 0.18332 0.05 0.22998 s0.11 0.07 0.23 0.07 l1.1 0 c0.12 0 0.19666 -0.02334 0.23 -0.07 s0.05 -0.12332 0.05 -0.22998 l0 -8.84 c0 -0.18666 -0.08666 -0.28 -0.26 -0.28 l-1.14 0 z M208.82000000000002 17.94 c0 0.28 -0.03334 0.54334 -0.1 0.79 s-0.18 0.46332 -0.34 0.64998 s-0.37334 0.33666 -0.64 0.45 s-0.6 0.17 -1 0.17 l-3.36 0 c-0.4 0 -0.73334 -0.05666 -1 -0.17 s-0.48 -0.26334 -0.64 -0.45 s-0.27334 -0.40332 -0.34 -0.64998 s-0.1 -0.51 -0.1 -0.79 l0 -10.56 c0 -0.57334 0.15666 -1.03 0.47 -1.37 s0.81 -0.51 1.49 -0.51 l3.6 0 c0.68 0 1.1767 0.17 1.49 0.51 s0.47 0.79666 0.47 1.37 l0 10.56 z"></path></g><g id="SvgjsG1492" featurekey="mlRtrp-0" transform="matrix(0.20381704992219588,0,0,0.20381704992219588,113.57210657371738,72.65170115469314)" fill="#c12f2f"><path d="M19.16 20 l0 -9.4238 l-4.9805 9.4238 l-3.4766 0 l-4.9805 -9.4238 l0 9.4238 l-3.623 0 l0 -13.418 l4.9219 0 l5.4199 10.156 l5.4199 -10.156 l4.9023 0 l0 13.418 l-3.6035 0 z M43.714834375 20 l0 -13.418 l13.584 0 l0 2.8613 l-9.8633 0 l0 2.2168 l9.3555 0 l0 2.8613 l-9.3555 0 l0 2.6172 l10 0 l0 2.8613 l-13.721 0 z M77.683584375 20 l0 -13.418 l3.623 0 l0 10.479 l9.7949 0 l0 2.9395 l-13.418 0 z M123.595296875 20 l0 -5.5957 l-9.2188 0 l0 5.5957 l-3.623 0 l0 -13.418 l3.623 0 l0 4.8828 l9.2188 0 l0 -4.8828 l3.623 0 l0 13.418 l-3.623 0 z M165.5333125 13.300799999999999 c0 1.1523 -0.21159 2.1696 -0.63477 3.0518 s-1.0286 1.6194 -1.8164 2.2119 s-1.7432 1.04 -2.8662 1.3428 s-2.3845 0.4541 -3.7842 0.4541 s-2.6644 -0.15137 -3.7939 -0.4541 s-2.0915 -0.75032 -2.8857 -1.3428 s-1.4063 -1.3298 -1.8359 -2.2119 s-0.64453 -1.8994 -0.64453 -3.0518 s0.21484 -2.1696 0.64453 -3.0518 s1.0417 -1.6194 1.8359 -2.2119 s1.7562 -1.04 2.8857 -1.3428 s2.3942 -0.4541 3.7939 -0.4541 s2.6611 0.15137 3.7842 0.4541 s2.0784 0.75032 2.8662 1.3428 s1.3933 1.3298 1.8164 2.2119 s0.63477 1.8994 0.63477 3.0518 z M161.8713125 13.300799999999999 c0 -0.5013 -0.079756 -1.001 -0.23926 -1.499 s-0.44271 -0.94563 -0.84961 -1.3428 s-0.96191 -0.7194 -1.665 -0.9668 s-1.5983 -0.37109 -2.6855 -0.37109 c-0.72917 0 -1.3704 0.056963 -1.9238 0.1709 s-1.0319 0.27182 -1.4355 0.47364 s-0.74219 0.43783 -1.0156 0.70802 s-0.49153 0.5599 -0.6543 0.86915 s-0.27832 0.63151 -0.34668 0.9668 s-0.10254 0.66568 -0.10254 0.99121 c0 0.33203 0.03418 0.66731 0.10254 1.0059 s0.18392 0.66244 0.34668 0.97169 s0.38086 0.59733 0.6543 0.86426 s0.61198 0.49967 1.0156 0.69823 s0.88216 0.35481 1.4355 0.46875 s1.1946 0.1709 1.9238 0.1709 c1.0872 0 1.9824 -0.1237 2.6855 -0.37109 s1.2581 -0.56966 1.665 -0.9668 s0.69011 -0.84473 0.84961 -1.3428 s0.23926 -0.99775 0.23926 -1.499 z M189.209028125 20 l-3.623 0 l0 -13.418 l9.082 0 c0.97656 0 1.805 0.10091 2.4854 0.30273 s1.2337 0.48828 1.6602 0.85938 s0.73568 0.81868 0.92774 1.3428 s0.28809 1.1084 0.28809 1.7529 c0 0.56641 -0.079756 1.0612 -0.23926 1.4844 s-0.37435 0.78613 -0.64453 1.0889 s-0.58432 0.55827 -0.94239 0.7666 s-0.73568 0.38086 -1.1328 0.51758 l4.3945 5.3027 l-4.2383 0 l-4.0625 -4.9414 l-3.9551 0 l0 4.9414 z M196.367328125 10.8203 c0 -0.26042 -0.03418 -0.48174 -0.10254 -0.66403 s-0.18718 -0.33041 -0.35645 -0.44435 s-0.39551 -0.19694 -0.67871 -0.24902 s-0.6364 -0.078125 -1.0596 -0.078125 l-4.9609 0 l0 2.8711 l4.9609 0 c0.42317 0 0.77637 -0.026045 1.0596 -0.078125 s0.50944 -0.13509 0.67871 -0.24902 s0.28809 -0.26205 0.35645 -0.44435 s0.10254 -0.40365 0.10254 -0.66407 z M231.59584375 17.4609 l-7.4805 0 l-1.2598 2.5391 l-4.043 0 l7.0215 -13.418 l4.043 0 l7.0215 13.418 l-4.043 0 z M225.41404375 14.8437 l4.9023 0 l-2.4414 -4.9414 z M268.523046875 20 l-9.0527 -9.2188 l0 9.2188 l-3.623 0 l0 -13.418 l3.9355 0 l9.0625 9.2578 l0 -9.2578 l3.6035 0 l0 13.418 l-3.9258 0 z M309.83578125 13.2812 c0 0.85938 -0.094385 1.6228 -0.28318 2.29 s-0.4541 1.2483 -0.7959 1.7432 s-0.75195 0.91472 -1.2305 1.2598 s-1.0107 0.62174 -1.5967 0.83007 s-1.2175 0.3597 -1.8945 0.4541 s-1.3835 0.1416 -2.1191 0.1416 l-8.5156 0 l0 -13.418 l8.4961 0 c0.73567 0 1.4421 0.047197 2.1191 0.1416 s1.3103 0.24577 1.8994 0.4541 s1.1247 0.4834 1.6064 0.8252 s0.89355 0.76172 1.2354 1.2598 s0.6071 1.0791 0.7959 1.7432 s0.2832 1.4226 0.2832 2.2754 z M306.18378125 13.2812 c0 -0.64453 -0.083008 -1.2044 -0.24902 -1.6797 s-0.43294 -0.86752 -0.80078 -1.1768 s-0.84799 -0.54037 -1.4404 -0.69337 s-1.3151 -0.22949 -2.168 -0.22949 l-4.502 0 l0 7.5781 l4.502 0 c0.85286 0 1.5755 -0.076494 2.168 -0.22949 s1.0726 -0.38737 1.4404 -0.70313 s0.63477 -0.71126 0.80078 -1.1865 s0.24902 -1.0352 0.24902 -1.6797 z M347.2520625 13.300799999999999 c0 1.1523 -0.21159 2.1696 -0.63477 3.0518 s-1.0286 1.6194 -1.8164 2.2119 s-1.7432 1.04 -2.8662 1.3428 s-2.3845 0.4541 -3.7842 0.4541 s-2.6644 -0.15137 -3.7939 -0.4541 s-2.0915 -0.75032 -2.8857 -1.3428 s-1.4063 -1.3298 -1.8359 -2.2119 s-0.64453 -1.8994 -0.64453 -3.0518 s0.21484 -2.1696 0.64453 -3.0518 s1.0417 -1.6194 1.8359 -2.2119 s1.7562 -1.04 2.8857 -1.3428 s2.3942 -0.4541 3.7939 -0.4541 s2.6611 0.15137 3.7842 0.4541 s2.0784 0.75032 2.8662 1.3428 s1.3933 1.3298 1.8164 2.2119 s0.63477 1.8994 0.63477 3.0518 z M343.5900625 13.300799999999999 c0 -0.5013 -0.079756 -1.001 -0.23926 -1.499 s-0.44271 -0.94563 -0.84961 -1.3428 s-0.96191 -0.7194 -1.665 -0.9668 s-1.5983 -0.37109 -2.6855 -0.37109 c-0.72917 0 -1.3704 0.056963 -1.9238 0.1709 s-1.0319 0.27182 -1.4355 0.47364 s-0.74219 0.43783 -1.0156 0.70802 s-0.49153 0.5599 -0.6543 0.86915 s-0.27832 0.63151 -0.34668 0.9668 s-0.10254 0.66568 -0.10254 0.99121 c0 0.33203 0.03418 0.66731 0.10254 1.0059 s0.18392 0.66244 0.34668 0.97169 s0.38086 0.59733 0.6543 0.86426 s0.61198 0.49967 1.0156 0.69823 s0.88216 0.35481 1.4355 0.46875 s1.1946 0.1709 1.9238 0.1709 c1.0872 0 1.9824 -0.1237 2.6855 -0.37109 s1.2581 -0.56966 1.665 -0.9668 s0.69011 -0.84473 0.84961 -1.3428 s0.23926 -0.99775 0.23926 -1.499 z M402.3575625 17.4609 l-7.4805 0 l-1.2598 2.5391 l-4.043 0 l7.0215 -13.418 l4.043 0 l7.0215 13.418 l-4.043 0 z M396.1757625 14.8437 l4.9023 0 l-2.4414 -4.9414 z M454.50395 20 l-3.623 0 l0 -13.418 l9.082 0 c0.97656 0 1.805 0.10091 2.4854 0.30273 s1.2337 0.48828 1.6602 0.85938 s0.73568 0.81868 0.92774 1.3428 s0.28809 1.1084 0.28809 1.7529 c0 0.56641 -0.079756 1.0612 -0.23926 1.4844 s-0.37435 0.78613 -0.64453 1.0889 s-0.58432 0.55827 -0.94239 0.7666 s-0.73568 0.38086 -1.1328 0.51758 l4.3945 5.3027 l-4.2383 0 l-4.0625 -4.9414 l-3.9551 0 l0 4.9414 z M461.66225 10.8203 c0 -0.26042 -0.03418 -0.48174 -0.10254 -0.66403 s-0.18718 -0.33041 -0.35645 -0.44435 s-0.39551 -0.19694 -0.67871 -0.24902 s-0.6364 -0.078125 -1.0596 -0.078125 l-4.9609 0 l0 2.8711 l4.9609 0 c0.42317 0 0.77637 -0.026045 1.0596 -0.078125 s0.50944 -0.13509 0.67871 -0.24902 s0.28809 -0.26205 0.35645 -0.44435 s0.10254 -0.40365 0.10254 -0.66407 z M486.109365625 20 l0 -13.418 l13.584 0 l0 2.8613 l-9.8633 0 l0 2.2168 l9.3555 0 l0 2.8613 l-9.3555 0 l0 2.6172 l10 0 l0 2.8613 l-13.721 0 z M520.078115625 20 l0 -13.418 l3.623 0 l0 10.479 l9.7949 0 l0 2.9395 l-13.418 0 z M563.929828125 17.4609 l-7.4805 0 l-1.2598 2.5391 l-4.043 0 l7.0215 -13.418 l4.043 0 l7.0215 13.418 l-4.043 0 z M557.748028125 14.8437 l4.9023 0 l-2.4414 -4.9414 z M602.96703125 19.08203 c-0.46875 0.19531 -0.94076 0.37102 -1.416 0.52727 s-0.9668 0.29134 -1.4746 0.40527 s-1.0433 0.2002 -1.6064 0.25879 s-1.167 0.087891 -1.8115 0.087891 c-1.3672 0 -2.6253 -0.14648 -3.7744 -0.43945 s-2.1387 -0.73405 -2.9688 -1.3232 s-1.4763 -1.3249 -1.9385 -2.207 s-0.69336 -1.9124 -0.69336 -3.0908 s0.23112 -2.2087 0.69336 -3.0908 s1.1084 -1.6179 1.9385 -2.207 s1.8196 -1.0303 2.9688 -1.3232 s2.4072 -0.43945 3.7744 -0.43945 c0.64453 0 1.2483 0.029297 1.8115 0.087891 s1.0986 0.14485 1.6064 0.25879 s0.99932 0.24902 1.4746 0.40527 s0.94727 0.33203 1.416 0.52734 l0 3.2617 c-0.37109 -0.20183 -0.76172 -0.40202 -1.1719 -0.60059 s-0.86263 -0.3776 -1.3574 -0.5371 s-1.0384 -0.28971 -1.6309 -0.39062 s-1.2598 -0.15137 -2.002 -0.15137 c-1.1394 0 -2.085 0.11719 -2.8369 0.35156 s-1.3525 0.54688 -1.8018 0.9375 s-0.76497 0.83821 -0.94727 1.3428 s-0.27344 1.0271 -0.27344 1.5674 c0 0.35808 0.039063 0.71127 0.11719 1.0596 s0.20833 0.67709 0.39063 0.98633 s0.41992 0.59408 0.71289 0.8545 s0.65755 0.48503 1.0938 0.67383 s0.94564 0.33691 1.5283 0.44434 s1.2549 0.16113 2.0166 0.16113 c0.74219 0 1.4095 -0.047197 2.002 -0.1416 s1.136 -0.21973 1.6309 -0.37598 s0.94727 -0.33366 1.3574 -0.53223 s0.80078 -0.40201 1.1719 -0.61034 l0 3.2617 l0 0 z M596.60903125 20.94719 c0.27995 0 0.57942 0.024396 0.89844 0.073224 s0.61035 0.14485 0.87402 0.28809 s0.4834 0.3418 0.65918 0.5957 s0.26367 0.58919 0.26367 1.0059 s-0.10254 0.76498 -0.30762 1.0449 s-0.47363 0.50619 -0.80566 0.67872 s-0.70313 0.2946 -1.1133 0.36621 s-0.82031 0.10742 -1.2305 0.10742 c-0.36458 0 -0.69173 -0.0097656 -0.98145 -0.029297 s-0.54688 -0.042314 -0.77148 -0.068359 s-0.4248 -0.053711 -0.60059 -0.083008 s-0.33203 -0.056963 -0.46875 -0.083008 l0 -1.8945 c0.29297 0.13021 0.62825 0.24251 1.0059 0.33691 s0.76823 0.1416 1.1719 0.1416 c0.20183 0 0.39226 -0.011396 0.57129 -0.03418 s0.33203 -0.056963 0.45898 -0.10254 s0.22786 -0.10417 0.30273 -0.17578 s0.1123 -0.15625 0.1123 -0.25391 c0 -0.11719 -0.043945 -0.20996 -0.13184 -0.27832 s-0.19694 -0.12207 -0.32715 -0.16113 s-0.26692 -0.065107 -0.41016 -0.078125 s-0.27344 -0.019531 -0.39063 -0.019531 c-0.16927 0 -0.34505 0.0097656 -0.52734 0.029297 s-0.34831 0.048828 -0.49805 0.087891 l0.9375 -2.4512 l1.6797 0 z M633.879046875 17.4609 l-7.4805 0 l-1.2598 2.5391 l-4.043 0 l7.0215 -13.418 l4.043 0 l7.0215 13.418 l-4.043 0 z M627.697246875 14.8437 l4.9023 0 l-2.4414 -4.9414 z M633.996046875 1.7089999999999996 c0 0.625 -0.05536 1.1621 -0.16604 1.6113 s-0.27181 0.81706 -0.4834 1.1035 s-0.46875 0.49805 -0.77148 0.63477 s-0.6429 0.20508 -1.0205 0.20508 c-0.35156 0 -0.64778 -0.061846 -0.88867 -0.18555 s-0.45573 -0.25879 -0.64453 -0.40527 s-0.36783 -0.28157 -0.5371 -0.40527 s-0.35807 -0.18555 -0.5664 -0.18555 c-0.19531 0 -0.34993 0.048828 -0.46387 0.14648 s-0.2002 0.21321 -0.25879 0.34668 s-0.097656 0.2653 -0.11719 0.39551 s-0.032549 0.22786 -0.039063 0.29297 l-1.7285 0 c0 -0.55339 0.056963 -1.0498 0.1709 -1.4893 s0.27832 -0.81218 0.49316 -1.1182 s0.47363 -0.54036 0.77637 -0.70313 s0.6429 -0.24414 1.0205 -0.24414 c0.30599 0 0.57129 0.061846 0.7959 0.18555 s0.43457 0.25879 0.62988 0.40527 s0.38574 0.27995 0.57129 0.40039 s0.39551 0.18066 0.62988 0.18066 c0.19531 0 0.34993 -0.048828 0.46387 -0.14648 s0.2002 -0.20996 0.25879 -0.33691 s0.097656 -0.25554 0.11719 -0.38574 s0.032549 -0.23111 0.039063 -0.30272 l1.7188 0 l0 0 z M675.49425 13.300799999999999 c0 1.1523 -0.21159 2.1696 -0.63477 3.0518 s-1.0286 1.6194 -1.8164 2.2119 s-1.7432 1.04 -2.8662 1.3428 s-2.3845 0.4541 -3.7842 0.4541 s-2.6644 -0.15137 -3.7939 -0.4541 s-2.0915 -0.75032 -2.8857 -1.3428 s-1.4063 -1.3298 -1.8359 -2.2119 s-0.64453 -1.8994 -0.64453 -3.0518 s0.21484 -2.1696 0.64453 -3.0518 s1.0417 -1.6194 1.8359 -2.2119 s1.7562 -1.04 2.8857 -1.3428 s2.3942 -0.4541 3.7939 -0.4541 s2.6611 0.15137 3.7842 0.4541 s2.0784 0.75032 2.8662 1.3428 s1.3933 1.3298 1.8164 2.2119 s0.63477 1.8994 0.63477 3.0518 z M671.83225 13.300799999999999 c0 -0.5013 -0.079756 -1.001 -0.23926 -1.499 s-0.44271 -0.94563 -0.84961 -1.3428 s-0.96191 -0.7194 -1.665 -0.9668 s-1.5983 -0.37109 -2.6855 -0.37109 c-0.72917 0 -1.3704 0.056963 -1.9238 0.1709 s-1.0319 0.27182 -1.4355 0.47364 s-0.74219 0.43783 -1.0156 0.70802 s-0.49153 0.5599 -0.6543 0.86915 s-0.27832 0.63151 -0.34668 0.9668 s-0.10254 0.66568 -0.10254 0.99121 c0 0.33203 0.03418 0.66731 0.10254 1.0059 s0.18392 0.66244 0.34668 0.97169 s0.38086 0.59733 0.6543 0.86426 s0.61198 0.49967 1.0156 0.69823 s0.88216 0.35481 1.4355 0.46875 s1.1946 0.1709 1.9238 0.1709 c1.0872 0 1.9824 -0.1237 2.6855 -0.37109 s1.2581 -0.56966 1.665 -0.9668 s0.69011 -0.84473 0.84961 -1.3428 s0.23926 -0.99775 0.23926 -1.499 z M719.81835 20 l0 -13.418 l13.584 0 l0 2.8613 l-9.8633 0 l0 2.2168 l9.3555 0 l0 2.8613 l-9.3555 0 l0 2.6172 l10 0 l0 2.8613 l-13.721 0 z M766.4625 20 l-9.0527 -9.2188 l0 9.2188 l-3.623 0 l0 -13.418 l3.9355 0 l9.0625 9.2578 l0 -9.2578 l3.6035 0 l0 13.418 l-3.9258 0 z M798.859334375 9.502 l0 10.498 l-3.623 0 l0 -10.498 l-5.6934 0 l0 -2.9199 l15.02 0 l0 2.9199 l-5.7031 0 z M827.330121875 20 l-3.623 0 l0 -13.418 l9.082 0 c0.97656 0 1.805 0.10091 2.4854 0.30273 s1.2337 0.48828 1.6602 0.85938 s0.73568 0.81868 0.92774 1.3428 s0.28809 1.1084 0.28809 1.7529 c0 0.56641 -0.079756 1.0612 -0.23926 1.4844 s-0.37435 0.78613 -0.64453 1.0889 s-0.58432 0.55827 -0.94239 0.7666 s-0.73568 0.38086 -1.1328 0.51758 l4.3945 5.3027 l-4.2383 0 l-4.0625 -4.9414 l-3.9551 0 l0 4.9414 z M834.488421875 10.8203 c0 -0.26042 -0.03418 -0.48174 -0.10254 -0.66403 s-0.18718 -0.33041 -0.35645 -0.44435 s-0.39551 -0.19694 -0.67871 -0.24902 s-0.6364 -0.078125 -1.0596 -0.078125 l-4.9609 0 l0 2.8711 l4.9609 0 c0.42317 0 0.77637 -0.026045 1.0596 -0.078125 s0.50944 -0.13509 0.67871 -0.24902 s0.28809 -0.26205 0.35645 -0.44435 s0.10254 -0.40365 0.10254 -0.66407 z M858.9355375 20 l0 -13.418 l13.584 0 l0 2.8613 l-9.8633 0 l0 2.2168 l9.3555 0 l0 2.8613 l-9.3555 0 l0 2.6172 l10 0 l0 2.8613 l-13.721 0 z M931.961171875 19.08203 c-0.46875 0.19531 -0.94076 0.37102 -1.416 0.52727 s-0.9668 0.29134 -1.4746 0.40527 s-1.0433 0.2002 -1.6064 0.25879 s-1.167 0.087891 -1.8115 0.087891 c-1.3672 0 -2.6253 -0.14648 -3.7744 -0.43945 s-2.1387 -0.73405 -2.9688 -1.3232 s-1.4763 -1.3249 -1.9385 -2.207 s-0.69336 -1.9124 -0.69336 -3.0908 s0.23112 -2.2087 0.69336 -3.0908 s1.1084 -1.6179 1.9385 -2.207 s1.8196 -1.0303 2.9688 -1.3232 s2.4072 -0.43945 3.7744 -0.43945 c0.64453 0 1.2483 0.029297 1.8115 0.087891 s1.0986 0.14485 1.6064 0.25879 s0.99932 0.24902 1.4746 0.40527 s0.94727 0.33203 1.416 0.52734 l0 3.2617 c-0.37109 -0.20183 -0.76172 -0.40202 -1.1719 -0.60059 s-0.86263 -0.3776 -1.3574 -0.5371 s-1.0384 -0.28971 -1.6309 -0.39062 s-1.2598 -0.15137 -2.002 -0.15137 c-1.1394 0 -2.085 0.11719 -2.8369 0.35156 s-1.3525 0.54688 -1.8018 0.9375 s-0.76497 0.83821 -0.94727 1.3428 s-0.27344 1.0271 -0.27344 1.5674 c0 0.35808 0.039063 0.71127 0.11719 1.0596 s0.20833 0.67709 0.39063 0.98633 s0.41992 0.59408 0.71289 0.8545 s0.65755 0.48503 1.0938 0.67383 s0.94564 0.33691 1.5283 0.44434 s1.2549 0.16113 2.0166 0.16113 c0.74219 0 1.4095 -0.047197 2.002 -0.1416 s1.136 -0.21973 1.6309 -0.37598 s0.94727 -0.33366 1.3574 -0.53223 s0.80078 -0.40201 1.1719 -0.61034 l0 3.2617 l0 0 z M962.8731875 17.4609 l-7.4805 0 l-1.2598 2.5391 l-4.043 0 l7.0215 -13.418 l4.043 0 l7.0215 13.418 l-4.043 0 z M956.6913875 14.8437 l4.9023 0 l-2.4414 -4.9414 z M962.9901875 1.7089999999999996 c0 0.625 -0.05536 1.1621 -0.16604 1.6113 s-0.27181 0.81706 -0.4834 1.1035 s-0.46875 0.49805 -0.77148 0.63477 s-0.6429 0.20508 -1.0205 0.20508 c-0.35156 0 -0.64778 -0.061846 -0.88867 -0.18555 s-0.45573 -0.25879 -0.64453 -0.40527 s-0.36783 -0.28157 -0.5371 -0.40527 s-0.35807 -0.18555 -0.5664 -0.18555 c-0.19531 0 -0.34993 0.048828 -0.46387 0.14648 s-0.2002 0.21321 -0.25879 0.34668 s-0.097656 0.2653 -0.11719 0.39551 s-0.032549 0.22786 -0.039063 0.29297 l-1.7285 0 c0 -0.55339 0.056963 -1.0498 0.1709 -1.4893 s0.27832 -0.81218 0.49316 -1.1182 s0.47363 -0.54036 0.77637 -0.70313 s0.6429 -0.24414 1.0205 -0.24414 c0.30599 0 0.57129 0.061846 0.7959 0.18555 s0.43457 0.25879 0.62988 0.40527 s0.38574 0.27995 0.57129 0.40039 s0.39551 0.18066 0.62988 0.18066 c0.19531 0 0.34993 -0.048828 0.46387 -0.14648 s0.2002 -0.20996 0.25879 -0.33691 s0.097656 -0.25554 0.11719 -0.38574 s0.032549 -0.23111 0.039063 -0.30272 l1.7188 0 l0 0 z M1004.488390625 13.300799999999999 c0 1.1523 -0.21159 2.1696 -0.63477 3.0518 s-1.0286 1.6194 -1.8164 2.2119 s-1.7432 1.04 -2.8662 1.3428 s-2.3845 0.4541 -3.7842 0.4541 s-2.6644 -0.15137 -3.7939 -0.4541 s-2.0915 -0.75032 -2.8857 -1.3428 s-1.4063 -1.3298 -1.8359 -2.2119 s-0.64453 -1.8994 -0.64453 -3.0518 s0.21484 -2.1696 0.64453 -3.0518 s1.0417 -1.6194 1.8359 -2.2119 s1.7562 -1.04 2.8857 -1.3428 s2.3942 -0.4541 3.7939 -0.4541 s2.6611 0.15137 3.7842 0.4541 s2.0784 0.75032 2.8662 1.3428 s1.3933 1.3298 1.8164 2.2119 s0.63477 1.8994 0.63477 3.0518 z M1000.826390625 13.300799999999999 c0 -0.5013 -0.079756 -1.001 -0.23926 -1.499 s-0.44271 -0.94563 -0.84961 -1.3428 s-0.96191 -0.7194 -1.665 -0.9668 s-1.5983 -0.37109 -2.6855 -0.37109 c-0.72917 0 -1.3704 0.056963 -1.9238 0.1709 s-1.0319 0.27182 -1.4355 0.47364 s-0.74219 0.43783 -1.0156 0.70802 s-0.49153 0.5599 -0.6543 0.86915 s-0.27832 0.63151 -0.34668 0.9668 s-0.10254 0.66568 -0.10254 0.99121 c0 0.33203 0.03418 0.66731 0.10254 1.0059 s0.18392 0.66244 0.34668 0.97169 s0.38086 0.59733 0.6543 0.86426 s0.61198 0.49967 1.0156 0.69823 s0.88216 0.35481 1.4355 0.46875 s1.1946 0.1709 1.9238 0.1709 c1.0872 0 1.9824 -0.1237 2.6855 -0.37109 s1.2581 -0.56966 1.665 -0.9668 s0.69011 -0.84473 0.84961 -1.3428 s0.23926 -0.99775 0.23926 -1.499 z M1048.812490625 20 l0 -13.418 l13.584 0 l0 2.8613 l-9.8633 0 l0 2.2168 l9.3555 0 l0 2.8613 l-9.3555 0 l0 2.6172 l10 0 l0 2.8613 l-13.721 0 z M1114.572225 9.502 l0 10.498 l-3.623 0 l0 -10.498 l-5.6934 0 l0 -2.9199 l15.02 0 l0 2.9199 l-5.7031 0 z M1155.2593125 15.4785 c0 0.67058 -0.16599 1.3021 -0.49802 1.8945 s-0.83008 1.1101 -1.4941 1.5527 s-1.4925 0.79264 -2.4854 1.0498 s-2.1533 0.38574 -3.4814 0.38574 s-2.4919 -0.12858 -3.4912 -0.38574 s-1.8311 -0.60709 -2.4951 -1.0498 s-1.1621 -0.96028 -1.4941 -1.5527 s-0.49805 -1.2239 -0.49805 -1.8945 l0 -8.8965 l3.6133 0 l0 7.5977 c0 0.44922 0.056963 0.87402 0.1709 1.2744 s0.32878 0.75032 0.64453 1.0498 s0.75846 0.53711 1.3281 0.71289 s1.3103 0.26367 2.2217 0.26367 c0.90495 0 1.6406 -0.087891 2.207 -0.26367 s1.0075 -0.41341 1.3232 -0.71289 s0.52896 -0.64941 0.63964 -1.0498 s0.16602 -0.8252 0.16602 -1.2744 l0 -7.5977 l3.623 0 l0 8.8965 l0 0 z M1183.632771875 9.502 l0 10.498 l-3.623 0 l0 -10.498 l-5.6934 0 l0 -2.9199 l15.02 0 l0 2.9199 l-5.7031 0 z M1225.648546875 13.300799999999999 c0 1.1523 -0.21159 2.1696 -0.63477 3.0518 s-1.0286 1.6194 -1.8164 2.2119 s-1.7432 1.04 -2.8662 1.3428 s-2.3845 0.4541 -3.7842 0.4541 s-2.6644 -0.15137 -3.7939 -0.4541 s-2.0915 -0.75032 -2.8857 -1.3428 s-1.4063 -1.3298 -1.8359 -2.2119 s-0.64453 -1.8994 -0.64453 -3.0518 s0.21484 -2.1696 0.64453 -3.0518 s1.0417 -1.6194 1.8359 -2.2119 s1.7562 -1.04 2.8857 -1.3428 s2.3942 -0.4541 3.7939 -0.4541 s2.6611 0.15137 3.7842 0.4541 s2.0784 0.75032 2.8662 1.3428 s1.3933 1.3298 1.8164 2.2119 s0.63477 1.8994 0.63477 3.0518 z M1221.986546875 13.300799999999999 c0 -0.5013 -0.079756 -1.001 -0.23926 -1.499 s-0.44271 -0.94563 -0.84961 -1.3428 s-0.96191 -0.7194 -1.665 -0.9668 s-1.5983 -0.37109 -2.6855 -0.37109 c-0.72917 0 -1.3704 0.056963 -1.9238 0.1709 s-1.0319 0.27182 -1.4355 0.47364 s-0.74219 0.43783 -1.0156 0.70802 s-0.49153 0.5599 -0.6543 0.86915 s-0.27832 0.63151 -0.34668 0.9668 s-0.10254 0.66568 -0.10254 0.99121 c0 0.33203 0.03418 0.66731 0.10254 1.0059 s0.18392 0.66244 0.34668 0.97169 s0.38086 0.59733 0.6543 0.86426 s0.61198 0.49967 1.0156 0.69823 s0.88216 0.35481 1.4355 0.46875 s1.1946 0.1709 1.9238 0.1709 c1.0872 0 1.9824 -0.1237 2.6855 -0.37109 s1.2581 -0.56966 1.665 -0.9668 s0.69011 -0.84473 0.84961 -1.3428 s0.23926 -0.99775 0.23926 -1.499 z M1249.3242625 20 l-3.623 0 l0 -13.418 l9.082 0 c0.97656 0 1.805 0.10091 2.4854 0.30273 s1.2337 0.48828 1.6602 0.85938 s0.73568 0.81868 0.92774 1.3428 s0.28809 1.1084 0.28809 1.7529 c0 0.56641 -0.079756 1.0612 -0.23926 1.4844 s-0.37435 0.78613 -0.64453 1.0889 s-0.58432 0.55827 -0.94239 0.7666 s-0.73568 0.38086 -1.1328 0.51758 l4.3945 5.3027 l-4.2383 0 l-4.0625 -4.9414 l-3.9551 0 l0 4.9414 z M1256.4825625 10.8203 c0 -0.26042 -0.03418 -0.48174 -0.10254 -0.66403 s-0.18718 -0.33041 -0.35645 -0.44435 s-0.39551 -0.19694 -0.67871 -0.24902 s-0.6364 -0.078125 -1.0596 -0.078125 l-4.9609 0 l0 2.8711 l4.9609 0 c0.42317 0 0.77637 -0.026045 1.0596 -0.078125 s0.50944 -0.13509 0.67871 -0.24902 s0.28809 -0.26205 0.35645 -0.44435 s0.10254 -0.40365 0.10254 -0.66407 z"></path></g></svg>