<?xml version="1.0" encoding="UTF-8" standalone="no"?>
<svg
   xmlns:dc="http://purl.org/dc/elements/1.1/"
   xmlns:cc="http://creativecommons.org/ns#"
   xmlns:rdf="http://www.w3.org/1999/02/22-rdf-syntax-ns#"
   xmlns:svg="http://www.w3.org/2000/svg"
   xmlns="http://www.w3.org/2000/svg"
   xmlns:sodipodi="http://sodipodi.sourceforge.net/DTD/sodipodi-0.dtd"
   xmlns:inkscape="http://www.inkscape.org/namespaces/inkscape"
   width="280"
   height="242.3825448459896"
   viewBox="0 0 280 242.3825448459896"
   class="css-1j8o68f"
   version="1.1"
   id="svg26"
   sodipodi:docname="logo2.svg"
   inkscape:version="0.92.5 (2060ec1f9f, 2020-04-08)">
  <metadata
     id="metadata30">
    <rdf:RDF>
      <cc:Work
         rdf:about="">
        <dc:format>image/svg+xml</dc:format>
        <dc:type
           rdf:resource="http://purl.org/dc/dcmitype/StillImage" />
      </cc:Work>
    </rdf:RDF>
  </metadata>
  <sodipodi:namedview
     pagecolor="#ffffff"
     bordercolor="#666666"
     borderopacity="1"
     objecttolerance="10"
     gridtolerance="10"
     guidetolerance="10"
     inkscape:pageopacity="0"
     inkscape:pageshadow="2"
     inkscape:window-width="1360"
     inkscape:window-height="705"
     id="namedview28"
     showgrid="false"
     inkscape:zoom="0.9736675"
     inkscape:cx="140"
     inkscape:cy="121.19127"
     inkscape:window-x="1358"
     inkscape:window-y="-8"
     inkscape:window-maximized="1"
     inkscape:current-layer="svg26" />
  <defs
     id="SvgjsDefs1482" />
  <rect
     style="opacity:1;fill:#fdf400;fill-opacity:1;fill-rule:nonzero;stroke:#000000;stroke-width:4;stroke-linecap:round;stroke-linejoin:round;stroke-miterlimit:4;stroke-dasharray:none;stroke-dashoffset:0;stroke-opacity:1;paint-order:fill markers stroke"
     id="rect840"
     width="549.46887"
     height="350.22223"
     x="-129.40762"
     y="-54.433365" />
  <g
     id="SvgjsG1483"
     featurekey="mugSzh-0"
     transform="matrix(2.2136790902379766,0,0,2.2136790902379766,32.252284008510216,-14.943608980957789)"
     fill="#39e991"
     style="fill:#000000;fill-opacity:1">
    <g
       id="g17"
       style="fill:#000000;fill-opacity:1">
      <path
         d="M50.655,23.027c0.358-0.238,9.061-11.923,9.061-11.923c3.1,10.373-2.504,18.361-2.504,18.361   c8.465-11.446,2.504-20.984,2.504-20.984c-3.1,5.604-10.134,13.473-10.134,13.473S50.298,23.265,50.655,23.027z"
         id="path3"
         style="fill:#000000;fill-opacity:1" />
      <path
         d="M59.001,15.754c-1.55,0-1.55,0-1.55,0s-3.577,4.829-3.696,9.657c0,0,1.013,2.861,1.848,0.358   c0.835-2.504,4.173-8.525,4.173-8.525S60.551,15.754,59.001,15.754z"
         id="path5"
         style="fill:#000000;fill-opacity:1" />
      <path
         d="M36.587,39.6c0.773,1.631,1.881,1.284,2.441,0.962c0.666,0.728,1.772,1.171,4.474,1.005   c3.875-0.238,6.438-2.983,6.438-2.983l0.596-0.713c0,0,0.656-1.073,0-1.523c-0.656-0.45-2.444-0.026-1.788,0.272   c0.656,0.298,0,1.823,0,1.823c-1.073,1.763-5.663,2.39-5.663,2.39s-2.851,0.352-3.268-0.662c-0.226-0.549,0.324-2.267-1.024-2.479   c-0.543-0.085-0.179-0.656-0.477-1.133c-0.298-0.477-1.162,0.111-1.451,0.287c0.287-0.566-0.04-2.314-0.04-2.314   c0.671-0.402,2.817-3.588,3.848-5.156h1.531l0.399-0.865c-0.898-0.596,0-2.742,0-2.742c0.282-1.361-1.322-0.25-2.259,0.494   c-0.013-0.23-0.002-0.375-0.002-0.375s1.669-3.875,2.261-4.948c0.592-1.073,3.223-2.981,3.998-3.636   c0.775-0.656,0.477-1.788,0.477-1.788c-0.476-0.214-0.912-0.218-1.266-0.147c-0.147-0.282-1.68-3.275-2.191-6.112l-1.908-2.504   c0,0-0.358-0.06-0.775,0.417c-0.417,0.477-1.669,1.013-1.55,1.312c0.119,0.298,0.536,0.417,0.536,1.133   c0,0.712,1.714,8.454,3.2,8.639l-0.521,0.72l-1.293,2.504c0,0-2.578,3.696-2.339,4.411c0.238,0.715,0.775,2.444,0.775,2.742   c0,0.298-3.517,5.425-3.636,5.723c-0.119,0.298,0.119,2.146,0.119,2.146c-0.273,0.542-1.023,1.715-1.073,1.942   C34.977,39.252,36.587,39.6,36.587,39.6z M41.713,11.76c0,0-0.656-3.219-0.06-2.742c0.596,0.477,0.588,1.073,0.95,1.252   c0.362,0.179,0.839-0.179,0.779,0.417c-0.054,0.536,1.446,4.2,1.75,4.937c-0.128,0.073-1.382,1.763-1.382,1.763   C43.102,16.374,41.759,14.017,41.713,11.76z"
         id="path7"
         style="fill:#000000;fill-opacity:1" />
      <path
         d="M79.516,62.372c-1.944-0.97-3.519-1.208-4.664-1.179c-0.366,0.009-0.688,0.045-0.963,0.094   c0.934-3.015,1.781-6.456,2.161-9.884c1.073-9.657-1.669-15.857-3.935-19.315c-1.247-1.904-2.53-2.506-3.432-2.662   c-0.901-1.38-1.775-2.187-2.172-2.63c-1.431-1.596-5.246-2.577-5.246-2.577c11.923,9.538,8.465,16.93,5.723,30.284   c-2.742,13.353-14.397,26.767-14.397,26.767l1.163,0.775c0,0,7.273-5.604,14.546-26.468c4.568-13.105,3.257-20.47,1.295-24.533   c4.226,3.5,6.655,8.419,4.905,20.36c-2.027,13.83-7.034,18.719-7.034,18.719l2.742,0.715c0,0,4.65-2.968,5.127-4.822   c0.282-1.095,0.062-2.575-0.165-3.606c0.728,0.146,3.348,0.744,3.861,1.871c0.596,1.311,1.073,5.484-1.312,9.657   c-2.385,4.173-4.181,8.346-6.323,8.584c-2.142,0.238,1.435,2.027,1.435,2.027s4.173-5.246,5.961-9.777   C80.582,70.241,83.817,64.518,79.516,62.372z M74.024,66.664l-2.614,1.461c0.512-1.23,1.135-2.818,1.762-4.641l1.471-0.906   L74.024,66.664z"
         id="path9"
         style="fill:#000000;fill-opacity:1" />
      <path
         d="M28.241,90.152c4.411-0.477,10.015-3.219,13.07-4.173c3.055-0.954,6.126-3.1,6.961-3.935   c0.835-0.835-1.401-1.908-1.401-1.908s0,0-0.507,1.073c-0.104,0.219-0.785,0.656-1.818,1.211c-0.676-1.004-1.614-2.839-1.941-5.623   c-0.533-4.531-1.01-14.191,3.223-16.215c4.233-2.024,5.905-0.815,5.665,0.606c0,0,2.267-1.56,0-2.394   c-2.267-0.835-5.931,0.715-7.02,1.908c-1.089,1.192-3.683,3.577-3.161,14.784c0.217,4.652,0.939,6.797,1.71,7.715   c-4.507,2.224-12.196,5.42-14.303,5.757c-2.981,0.477-10.134-0.477-11.684-0.119c-1.55,0.358-0.596,1.312-0.596,1.312   S23.829,90.629,28.241,90.152z"
         id="path11"
         style="fill:#000000;fill-opacity:1" />
      <path
         d="M61.148,85.25c-1.192,0.106-8.108,1.563-4.285,1.802c0.762,0.048,1.532,0.09,2.288,0.125   c-0.094,0.072-0.185,0.149-0.269,0.232c-0.835,0.835-3.934,2.385-6.289,2.954c-2.355,0.57-8.733-0.093-9.989,0   c-1.256,0.093-7.925,1.457-8.521,1.338c-0.596-0.119-9.657-0.238-12.877-0.477c-3.013-0.223-3.206-0.783-3.218-0.854   c0.131,2.707,6.679,2.285,9.537,2.523c2.861,0.238,7.617,0,7.617,0s6.81-1.55,12.771-1.185c5.961,0.365,6.915-0.961,8.949-1.915   c1.249-0.586,2.577-1.754,3.418-2.57c2.581,0.094,4.837,0.078,5.755-0.172c1.312-0.358,0.835-2.504,0.835-2.504   C64.486,84.19,62.34,85.144,61.148,85.25z"
         id="path13"
         style="fill:#000000;fill-opacity:1" />
      <path
         d="M46.87,29.465c0,0,0.507,0.715,0,1.431c-0.507,0.715,1.587,1.431,1.587,1.431l1.602-1.908   C50.059,30.419,47.855,30.657,46.87,29.465z"
         id="path15"
         style="fill:#000000;fill-opacity:1" />
    </g>
  </g>
  <g
     id="SvgjsG1484"
     featurekey="PPkF4s-0"
     transform="matrix(0.8292365760514628,0,0,0.8292365760514628,-1.2770242954863877,207.16892711354083)"
     fill="#ffffff"
     style="fill:#000000;fill-opacity:1">
    <path
       d="M4.7 11.38 l7 0 l0 2.76 l-7 0 l0 3.12 l7.92 0 l0 2.74 l-11.08 0 l0 -14.62 l11.08 0 l0 2.74 l-7.92 0 l0 3.26 z M15.4 4.880000000000001 l3 0 l0 15.12 l-3 0 l0 -15.12 z M24.06 7.369999999999999 q-0.48 0.47 -1.16 0.47 q-0.7 0 -1.19 -0.47 t-0.49 -1.15 q0 -0.66 0.49 -1.13 t1.19 -0.47 q0.68 0 1.16 0.47 t0.48 1.13 q0 0.68 -0.48 1.15 z M21.4 9.02 l3 0 l0 10.98 l-3 0 l0 -10.98 z M44.63 19.18 q-1.85 1.1 -4.03 1.1 q-2.14 0 -3.95 -1.02 t-2.87 -2.76 t-1.06 -3.8 q0 -2.04 1.06 -3.78 t2.87 -2.76 t3.95 -1.02 q2.16 0 4.02 1.09 t2.92 2.91 l-2.94 1.14 q-0.7 -1 -1.77 -1.64 t-2.23 -0.64 q-1.28 0 -2.36 0.65 t-1.71 1.73 t-0.63 2.32 t0.63 2.33 t1.71 1.74 t2.36 0.65 q1.16 0 2.23 -0.65 t1.77 -1.67 l2.94 1.14 q-1.06 1.84 -2.91 2.94 z M51.989999999999995 19.49 q-1.37 -0.77 -2.17 -2.09 t-0.8 -2.88 q0 -1.54 0.8 -2.86 t2.17 -2.09 t2.99 -0.77 t3 0.77 t2.19 2.09 t0.81 2.86 q0 1.56 -0.81 2.88 t-2.19 2.09 t-3 0.77 t-2.99 -0.77 z M53.459999999999994 11.83 q-0.7 0.41 -1.1 1.12 t-0.4 1.57 q0 0.9 0.39 1.61 t1.08 1.12 t1.55 0.41 q0.84 0 1.53 -0.41 t1.09 -1.13 t0.4 -1.6 q0 -0.86 -0.4 -1.57 t-1.09 -1.12 t-1.53 -0.41 q-0.82 0 -1.52 0.41 z M79.83 10.04 q1.13 1.24 1.13 3.46 l0 6.5 l-3.02 0 l0 -6.5 q0 -1.18 -0.59 -1.7 t-1.55 -0.52 q-0.8 0 -1.44 0.6 t-0.66 2 l0 6.12 l-3.02 0 l0 -6.5 q0 -1.18 -0.59 -1.7 t-1.53 -0.52 q-0.86 0 -1.49 0.64 t-0.63 2.26 l-0.02 5.82 l-2.98 0 l0 -11 l2.98 0 l0 1 q0.58 -0.52 1.4 -0.86 t1.5 -0.34 q2.32 0 3.54 1.5 q0.62 -0.7 1.54 -1.1 t2 -0.4 q2.3 0 3.43 1.24 z M87.02000000000001 10.1 q0.38 -0.52 1.31 -0.93 t2.03 -0.41 q1.7 0 2.95 0.76 t1.91 2.07 t0.66 2.91 t-0.66 2.91 t-1.91 2.07 t-2.95 0.76 q-1.14 0 -2.01 -0.39 t-1.33 -0.99 l0 4.68 l-2.96 0 l0 -14.54 l2.96 0 l0 1.1 z M87.72000000000001 16.75 q0.82 0.87 2.2 0.87 q1.4 0 2.21 -0.87 t0.81 -2.25 q0 -1.34 -0.83 -2.22 t-2.19 -0.88 q-1.4 0 -2.21 0.83 t-0.81 2.27 q0 1.38 0.82 2.25 z M100.77000000000001 19.49 q-1.37 -0.77 -2.17 -2.09 t-0.8 -2.88 q0 -1.54 0.8 -2.86 t2.17 -2.09 t2.99 -0.77 t3 0.77 t2.19 2.09 t0.81 2.86 q0 1.56 -0.81 2.88 t-2.19 2.09 t-3 0.77 t-2.99 -0.77 z M102.24000000000001 11.83 q-0.7 0.41 -1.1 1.12 t-0.4 1.57 q0 0.9 0.39 1.61 t1.08 1.12 t1.55 0.41 q0.84 0 1.53 -0.41 t1.09 -1.13 t0.4 -1.6 q0 -0.86 -0.4 -1.57 t-1.09 -1.12 t-1.53 -0.41 q-0.82 0 -1.52 0.41 z M117.44000000000001 11.87 q-0.86 0.21 -1.58 0.99 t-0.72 2.28 l0 4.86 l-2.98 0 l0 -11 l2.98 0 l0 1.46 q0.74 -0.98 1.81 -1.33 t1.95 -0.33 l0 2.92 q-0.6 -0.06 -1.46 0.15 z M124.38000000000001 16.08 q0 0.7 0.24 1.17 t1.12 0.47 q0.4 0 0.76 -0.04 l0 2.52 q-0.72 0.08 -1.34 0.08 q-1.28 0 -2.07 -0.21 t-1.23 -0.81 t-0.44 -1.72 l0 -6.1 l-1.34 0 l0 -2.62 l1.34 0 l0 -2.94 l2.96 0 l0 2.94 l2.2 0 l0 2.62 l-2.2 0 l0 4.64 z M137.22000000000003 18.9 q-0.38 0.52 -1.31 0.93 t-2.03 0.41 q-1.7 0 -2.95 -0.76 t-1.91 -2.07 t-0.66 -2.91 t0.66 -2.91 t1.91 -2.07 t2.95 -0.76 q1.14 0 2.01 0.39 t1.33 0.99 l0 -1.14 l2.96 0 l0 11 l-2.96 0 l0 -1.1 z M136.52 12.25 q-0.82 -0.87 -2.2 -0.87 q-1.4 0 -2.21 0.87 t-0.81 2.25 q0 1.34 0.83 2.22 t2.19 0.88 q1.4 0 2.21 -0.83 t0.81 -2.27 q0 -1.38 -0.82 -2.25 z M159.55 10.04 q1.13 1.24 1.13 3.46 l0 6.5 l-3.02 0 l0 -6.5 q0 -1.18 -0.59 -1.7 t-1.55 -0.52 q-0.8 0 -1.44 0.6 t-0.66 2 l0 6.12 l-3.02 0 l0 -6.5 q0 -1.18 -0.59 -1.7 t-1.53 -0.52 q-0.86 0 -1.49 0.64 t-0.63 2.26 l-0.02 5.82 l-2.98 0 l0 -11 l2.98 0 l0 1 q0.58 -0.52 1.4 -0.86 t1.5 -0.34 q2.32 0 3.54 1.5 q0.62 -0.7 1.54 -1.1 t2 -0.4 q2.3 0 3.43 1.24 z M166.59000000000003 19.74 q-1.37 -0.54 -2.35 -1.83 t-0.98 -3.37 t0.99 -3.36 t2.37 -1.82 t2.62 -0.54 q1.44 0 2.74 0.64 t2.13 1.88 t0.87 2.94 q0 0.52 -0.02 0.9 t-0.04 0.48 l-8.68 0 q0.24 1.16 1.2 1.58 t1.8 0.42 q1.08 0 1.72 -0.39 t1.1 -0.89 l2.32 1.34 q-1.88 2.56 -5.14 2.56 q-1.28 0 -2.65 -0.54 z M167.20000000000005 12.05 q-0.78 0.61 -0.88 1.49 l5.5 0 q-0.06 -0.52 -0.4 -1 t-0.91 -0.79 t-1.29 -0.31 q-1.24 0 -2.02 0.61 z M186.61000000000004 10.02 q1.03 1.22 1.03 3.48 l0 6.5 l-3.06 0 l0 -6.5 q0 -2.22 -2.12 -2.22 q-0.82 0 -1.48 0.65 t-0.62 2.25 l0 5.82 l-2.98 0 l0 -11 l2.98 0 l0 0.98 q0.54 -0.54 1.36 -0.86 t1.58 -0.32 q2.28 0 3.31 1.22 z M194.26000000000005 16.08 q0 0.7 0.24 1.17 t1.12 0.47 q0.4 0 0.76 -0.04 l0 2.52 q-0.72 0.08 -1.34 0.08 q-1.28 0 -2.07 -0.21 t-1.23 -0.81 t-0.44 -1.72 l0 -6.1 l-1.34 0 l0 -2.62 l1.34 0 l0 -2.94 l2.96 0 l0 2.94 l2.2 0 l0 2.62 l-2.2 0 l0 4.64 z M207.10000000000002 18.9 q-0.38 0.52 -1.31 0.93 t-2.03 0.41 q-1.7 0 -2.95 -0.76 t-1.91 -2.07 t-0.66 -2.91 t0.66 -2.91 t1.91 -2.07 t2.95 -0.76 q1.14 0 2.01 0.39 t1.33 0.99 l0 -1.14 l2.96 0 l0 11 l-2.96 0 l0 -1.1 z M206.40000000000003 12.25 q-0.82 -0.87 -2.2 -0.87 q-1.4 0 -2.21 0.87 t-0.81 2.25 q0 1.34 0.83 2.22 t2.19 0.88 q1.4 0 2.21 -0.83 t0.81 -2.27 q0 -1.38 -0.82 -2.25 z M213.04000000000002 4.880000000000001 l3 0 l0 15.12 l-3 0 l0 -15.12 z M221.70000000000002 7.369999999999999 q-0.48 0.47 -1.16 0.47 q-0.7 0 -1.19 -0.47 t-0.49 -1.15 q0 -0.66 0.49 -1.13 t1.19 -0.47 q0.68 0 1.16 0.47 t0.48 1.13 q0 0.68 -0.48 1.15 z M219.04000000000002 9.02 l3 0 l0 10.98 l-3 0 l0 -10.98 z M224.38 18.54 l1.56 -2.08 q0.72 0.5 1.68 0.84 t1.88 0.34 q0.68 0 1.13 -0.28 t0.45 -0.7 t-0.51 -0.59 t-0.99 -0.24 t-0.62 -0.09 q-1.2 -0.2 -2.07 -0.48 t-1.58 -1 t-0.71 -1.98 q0 -2.08 1.51 -2.78 t3.03 -0.7 q1.3 0 2.4 0.38 t2.18 1.2 l-1.56 2.04 q-0.78 -0.46 -1.54 -0.74 t-1.58 -0.28 q-0.5 0 -0.97 0.22 t-0.47 0.6 q0 0.48 0.65 0.68 t1.43 0.3 q1.4 0.24 2.24 0.5 t1.49 0.97 t0.65 2.01 q0 1.72 -1.18 2.65 t-3.34 0.93 q-3 0 -5.16 -1.72 z M240.14000000000001 16.08 q0 0.7 0.24 1.17 t1.12 0.47 q0.4 0 0.76 -0.04 l0 2.52 q-0.72 0.08 -1.34 0.08 q-1.28 0 -2.07 -0.21 t-1.23 -0.81 t-0.44 -1.72 l0 -6.1 l-1.34 0 l0 -2.62 l1.34 0 l0 -2.94 l2.96 0 l0 2.94 l2.2 0 l0 2.62 l-2.2 0 l0 4.64 z M252.98 18.9 q-0.38 0.52 -1.31 0.93 t-2.03 0.41 q-1.7 0 -2.95 -0.76 t-1.91 -2.07 t-0.66 -2.91 t0.66 -2.91 t1.91 -2.07 t2.95 -0.76 q1.14 0 2.01 0.39 t1.33 0.99 l0 -1.14 l2.96 0 l0 11 l-2.96 0 l0 -1.1 z M252.28 12.25 q-0.82 -0.87 -2.2 -0.87 q-1.4 0 -2.21 0.87 t-0.81 2.25 q0 1.34 0.83 2.22 t2.19 0.88 q1.4 0 2.21 -0.83 t0.81 -2.27 q0 -1.38 -0.82 -2.25 z M276.16999999999996 19.18 q-1.85 1.1 -4.03 1.1 q-2.14 0 -3.95 -1.02 t-2.87 -2.76 t-1.06 -3.8 q0 -2.04 1.06 -3.78 t2.87 -2.76 t3.95 -1.02 q2.16 0 4.02 1.09 t2.92 2.91 l-2.94 1.14 q-0.7 -1 -1.77 -1.64 t-2.23 -0.64 q-1.28 0 -2.36 0.65 t-1.71 1.73 t-0.63 2.32 t0.63 2.33 t1.71 1.74 t2.36 0.65 q1.16 0 2.23 -0.65 t1.77 -1.67 l2.94 1.14 q-1.06 1.84 -2.91 2.94 z M289.42 18.9 q-0.38 0.52 -1.31 0.93 t-2.03 0.41 q-1.7 0 -2.95 -0.76 t-1.91 -2.07 t-0.66 -2.91 t0.66 -2.91 t1.91 -2.07 t2.95 -0.76 q1.14 0 2.01 0.39 t1.33 0.99 l0 -1.14 l2.96 0 l0 11 l-2.96 0 l0 -1.1 z M288.71999999999997 12.25 q-0.82 -0.87 -2.2 -0.87 q-1.4 0 -2.21 0.87 t-0.81 2.25 q0 1.34 0.83 2.22 t2.19 0.88 q1.4 0 2.21 -0.83 t0.81 -2.27 q0 -1.38 -0.82 -2.25 z M304.54999999999995 10.02 q1.03 1.22 1.03 3.48 l0 6.5 l-3.06 0 l0 -6.5 q0 -2.22 -2.12 -2.22 q-0.82 0 -1.48 0.65 t-0.62 2.25 l0 5.82 l-2.98 0 l0 -11 l2.98 0 l0 0.98 q0.54 -0.54 1.36 -0.86 t1.58 -0.32 q2.28 0 3.31 1.22 z M311.3 7.369999999999999 q-0.48 0.47 -1.16 0.47 q-0.7 0 -1.19 -0.47 t-0.49 -1.15 q0 -0.66 0.49 -1.13 t1.19 -0.47 q0.68 0 1.16 0.47 t0.48 1.13 q0 0.68 -0.48 1.15 z M308.64 9.02 l3 0 l0 10.98 l-3 0 l0 -10.98 z M323.81 10.02 q1.03 1.22 1.03 3.48 l0 6.5 l-3.06 0 l0 -6.5 q0 -2.22 -2.12 -2.22 q-0.82 0 -1.48 0.65 t-0.62 2.25 l0 5.82 l-2.98 0 l0 -11 l2.98 0 l0 0.98 q0.54 -0.54 1.36 -0.86 t1.58 -0.32 q2.28 0 3.31 1.22 z M330.21000000000004 19.49 q-1.37 -0.77 -2.17 -2.09 t-0.8 -2.88 q0 -1.54 0.8 -2.86 t2.17 -2.09 t2.99 -0.77 t3 0.77 t2.19 2.09 t0.81 2.86 q0 1.56 -0.81 2.88 t-2.19 2.09 t-3 0.77 t-2.99 -0.77 z M331.68000000000006 11.83 q-0.7 0.41 -1.1 1.12 t-0.4 1.57 q0 0.9 0.39 1.61 t1.08 1.12 t1.55 0.41 q0.84 0 1.53 -0.41 t1.09 -1.13 t0.4 -1.6 q0 -0.86 -0.4 -1.57 t-1.09 -1.12 t-1.53 -0.41 q-0.82 0 -1.52 0.41 z"
       id="path20"
       style="fill:#000000;fill-opacity:1" />
  </g>
  <g
     id="SvgjsG1485"
     featurekey="uwAHB0-0"
     transform="matrix(0.247587205479671,0,0,0.247587205479671,35.55434318951595,236.36122502875185)"
     fill="#39e991"
     style="fill:#000000;fill-opacity:1">
    <path
       d="M3.78 5.84 l5.16 11.88 l5.16 -11.88 l1.88 0 l0 14.16 l-1.32 0 l0 -12.48 l-0.04 0 l-5.4 12.48 l-0.58 0 l-5.48 -12.48 l-0.04 0 l0 12.48 l-1.32 0 l0 -14.16 l1.98 0 z M38.604 5.84 l0 1.2 l-7.34 0 l0 5.04 l6.88 0 l0 1.2 l-6.88 0 l0 5.52 l7.66 0 l0 1.2 l-8.98 0 l0 -14.16 l8.66 0 z M53.348 5.84 l0 12.96 l6.6 0 l0 1.2 l-7.92 0 l0 -14.16 l1.32 0 z M73.572 5.84 l0 6.24 l7.92 0 l0 -6.24 l1.32 0 l0 14.16 l-1.32 0 l0 -6.72 l-7.92 0 l0 6.72 l-1.32 0 l0 -14.16 l1.32 0 z M97.316 12.92 q0 2.7 1.66 4.45 t4.34 1.79 q2.7 0 4.34 -1.77 t1.66 -4.47 q0 -2.74 -1.64 -4.47 t-4.38 -1.77 q-2.68 0 -4.32 1.76 t-1.66 4.48 z M103.316 5.48 q2.16 0 3.82 0.95 t2.57 2.66 t0.93 3.83 q0 3.26 -2.06 5.33 t-5.26 2.11 q-3.22 0 -5.24 -2.09 t-2.08 -5.35 q0.02 -3.26 2.04 -5.32 t5.28 -2.12 z M128.04 12.08 q1.54 0 2.38 -0.69 t0.84 -1.83 t-0.82 -1.82 t-2.44 -0.7 l-2.86 0 l0 5.04 l2.9 0 z M127.64 5.84 q4.9 0 4.94 3.72 q0 3.14 -3.62 3.64 l4.12 6.8 l-1.5 0 l-3.98 -6.72 l-2.46 0 l0 6.72 l-1.32 0 l0 -14.16 l3.82 0 z M147.564 15.04 l6.5 0 l-3.2 -7.76 z M151.60399999999998 5.84 l5.96 14.16 l-1.48 0 l-1.54 -3.76 l-7.5 0 l-1.6 3.76 l-1.38 0 l6.18 -14.16 l1.36 0 z M171.528 5.84 l8.62 12.4 l0.04 0 l0 -12.4 l1.32 0 l0 14.16 l-1.7 0 l-8.62 -12.4 l-0.04 0 l0 12.4 l-1.32 0 l0 -14.16 l1.7 0 z M199.572 18.8 q3.04 0 4.8 -1.54 t1.78 -4.24 q0 -2.88 -1.75 -4.42 t-4.89 -1.56 l-2.76 0 l0 11.76 l2.82 0 z M199.852 5.84 q3.56 0 5.57 1.92 t2.05 5.26 q0 1.96 -0.89 3.55 t-2.56 2.51 t-4.09 0.92 l-4.5 0 l0 -14.16 l4.42 0 z M221.056 12.92 q0 2.7 1.66 4.45 t4.34 1.79 q2.7 0 4.34 -1.77 t1.66 -4.47 q0 -2.74 -1.64 -4.47 t-4.38 -1.77 q-2.68 0 -4.32 1.76 t-1.66 4.48 z M227.056 5.48 q2.16 0 3.82 0.95 t2.57 2.66 t0.93 3.83 q0 3.26 -2.06 5.33 t-5.26 2.11 q-3.22 0 -5.24 -2.09 t-2.08 -5.35 q0.02 -3.26 2.04 -5.32 t5.28 -2.12 z M264.644 15.04 l6.5 0 l-3.2 -7.76 z M268.68399999999997 5.84 l5.96 14.16 l-1.48 0 l-1.54 -3.76 l-7.5 0 l-1.6 3.76 l-1.38 0 l6.18 -14.16 l1.36 0 z M306.55199999999996 12.08 q1.54 0 2.38 -0.69 t0.84 -1.83 t-0.82 -1.82 t-2.44 -0.7 l-2.86 0 l0 5.04 l2.9 0 z M306.15199999999993 5.84 q4.9 0 4.94 3.72 q0 3.14 -3.62 3.64 l4.12 6.8 l-1.5 0 l-3.98 -6.72 l-2.46 0 l0 6.72 l-1.32 0 l0 -14.16 l3.82 0 z M333.07599999999996 5.84 l0 1.2 l-7.34 0 l0 5.04 l6.88 0 l0 1.2 l-6.88 0 l0 5.52 l7.66 0 l0 1.2 l-8.98 0 l0 -14.16 l8.66 0 z M347.81999999999994 5.84 l0 12.96 l6.6 0 l0 1.2 l-7.92 0 l0 -14.16 l1.32 0 z M368.38399999999996 15.04 l6.5 0 l-3.2 -7.76 z M372.4239999999999 5.84 l5.96 14.16 l-1.48 0 l-1.54 -3.76 l-7.5 0 l-1.6 3.76 l-1.38 0 l6.18 -14.16 l1.36 0 z M397.0479999999999 5.48 q3.18 0 4.88 2.22 l-1.08 0.9 q-0.6 -0.9 -1.6 -1.41 t-2.2 -0.51 q-2.64 0 -4.3 1.74 t-1.7 4.5 q0 2.74 1.67 4.47 t4.31 1.77 q1.26 0 2.4 -0.6 t1.8 -1.6 l1.08 0.82 q-1.88 2.58 -5.28 2.58 q-0.24 0 -0.52 -0.02 l-0.68 0.92 l0.04 0.06 q0.28 -0.14 0.62 -0.14 q0.72 0 1.19 0.39 t0.47 1.05 q0 0.78 -0.64 1.24 t-1.62 0.46 q-1 0 -1.88 -0.42 l0.28 -0.64 q0.58 0.34 1.52 0.34 q0.52 0 0.89 -0.23 t0.37 -0.63 q0 -0.38 -0.31 -0.61 t-0.83 -0.23 q-0.42 0 -0.86 0.16 l-0.32 -0.3 l1.06 -1.5 q-2.7 -0.4 -4.37 -2.39 t-1.71 -4.95 q0 -3.26 2.04 -5.32 t5.28 -2.12 z M416.61199999999997 15.04 l6.5 0 l-3.2 -7.76 z M420.65199999999993 5.84 l5.96 14.16 l-1.48 0 l-1.54 -3.76 l-7.5 0 l-1.6 3.76 l-1.38 0 l6.18 -14.16 l1.36 0 z M418.55199999999996 2.5799999999999983 q0.58 0 1.48 0.48 q0.88 0.48 1.28 0.48 q0.72 0 0.96 -0.96 l0.72 0 q-0.1 0.96 -0.57 1.5 t-1.11 0.54 q-0.58 0 -1.5 -0.48 t-1.32 -0.48 q-0.76 0 -1.02 0.96 l-0.72 0 q0.14 -0.9 0.63 -1.47 t1.17 -0.57 z M439.2759999999999 12.92 q0 2.7 1.66 4.45 t4.34 1.79 q2.7 0 4.34 -1.77 t1.66 -4.47 q0 -2.74 -1.64 -4.47 t-4.38 -1.77 q-2.68 0 -4.32 1.76 t-1.66 4.48 z M445.2759999999999 5.48 q2.16 0 3.82 0.95 t2.57 2.66 t0.93 3.83 q0 3.26 -2.06 5.33 t-5.26 2.11 q-3.22 0 -5.24 -2.09 t-2.08 -5.35 q0.02 -3.26 2.04 -5.32 t5.28 -2.12 z M489.8639999999999 5.84 l0 1.2 l-7.34 0 l0 5.04 l6.88 0 l0 1.2 l-6.88 0 l0 5.52 l7.66 0 l0 1.2 l-8.98 0 l0 -14.16 l8.66 0 z M504.9879999999999 5.84 l8.62 12.4 l0.04 0 l0 -12.4 l1.32 0 l0 14.16 l-1.7 0 l-8.62 -12.4 l-0.04 0 l0 12.4 l-1.32 0 l0 -14.16 l1.7 0 z M538.372 5.84 l0 1.2 l-4.84 0 l0 12.96 l-1.32 0 l0 -12.96 l-4.84 0 l0 -1.2 l11 0 z M554.9959999999999 12.08 q1.54 0 2.38 -0.69 t0.84 -1.83 t-0.82 -1.82 t-2.44 -0.7 l-2.86 0 l0 5.04 l2.9 0 z M554.5959999999999 5.84 q4.9 0 4.94 3.72 q0 3.14 -3.62 3.64 l4.12 6.8 l-1.5 0 l-3.98 -6.72 l-2.46 0 l0 6.72 l-1.32 0 l0 -14.16 l3.82 0 z M581.5199999999999 5.84 l0 1.2 l-7.34 0 l0 5.04 l6.88 0 l0 1.2 l-6.88 0 l0 5.52 l7.66 0 l0 1.2 l-8.98 0 l0 -14.16 l8.66 0 z M616.7679999999998 5.48 q3.14 0 4.88 2.22 l-1.08 0.9 q-0.6 -0.9 -1.6 -1.41 t-2.2 -0.51 q-2.64 0 -4.3 1.74 t-1.7 4.5 q0 2.74 1.67 4.47 t4.33 1.77 q1.14 0 2.32 -0.57 t1.86 -1.63 l1.08 0.82 q-1.88 2.58 -5.26 2.58 q-3.28 -0.02 -5.27 -2.12 t-2.05 -5.32 q0 -3.26 2.05 -5.33 t5.27 -2.11 z M636.3319999999998 15.04 l6.5 0 l-3.2 -7.76 z M640.3719999999997 5.84 l5.96 14.16 l-1.48 0 l-1.54 -3.76 l-7.5 0 l-1.6 3.76 l-1.38 0 l6.18 -14.16 l1.36 0 z M638.2719999999997 2.5799999999999983 q0.58 0 1.48 0.48 q0.88 0.48 1.28 0.48 q0.72 0 0.96 -0.96 l0.72 0 q-0.1 0.96 -0.57 1.5 t-1.11 0.54 q-0.58 0 -1.5 -0.48 t-1.32 -0.48 q-0.76 0 -1.02 0.96 l-0.72 0 q0.14 -0.9 0.63 -1.47 t1.17 -0.57 z M658.9959999999998 12.92 q0 2.7 1.66 4.45 t4.34 1.79 q2.7 0 4.34 -1.77 t1.66 -4.47 q0 -2.74 -1.64 -4.47 t-4.38 -1.77 q-2.68 0 -4.32 1.76 t-1.66 4.48 z M664.9959999999998 5.48 q2.16 0 3.82 0.95 t2.57 2.66 t0.93 3.83 q0 3.26 -2.06 5.33 t-5.26 2.11 q-3.22 0 -5.24 -2.09 t-2.08 -5.35 q0.02 -3.26 2.04 -5.32 t5.28 -2.12 z M709.5839999999997 5.84 l0 1.2 l-7.34 0 l0 5.04 l6.88 0 l0 1.2 l-6.88 0 l0 5.52 l7.66 0 l0 1.2 l-8.98 0 l0 -14.16 l8.66 0 z M747.7319999999996 5.84 l0 1.2 l-4.84 0 l0 12.96 l-1.32 0 l0 -12.96 l-4.84 0 l0 -1.2 l11 0 z M761.1959999999996 5.84 l0 8.5 q0 2.3 0.95 3.54 t2.89 1.28 q3.8 0 3.84 -5.02 l0 -8.3 l1.32 0 l0 8.64 q0 2.78 -1.3 4.32 t-3.86 1.56 q-2.52 0 -3.83 -1.53 t-1.33 -4.25 l0 -8.74 l1.32 0 z M793.3399999999996 5.84 l0 1.2 l-4.84 0 l0 12.96 l-1.32 0 l0 -12.96 l-4.84 0 l0 -1.2 l11 0 z M806.1439999999996 12.92 q0 2.7 1.66 4.45 t4.34 1.79 q2.7 0 4.34 -1.77 t1.66 -4.47 q0 -2.74 -1.64 -4.47 t-4.38 -1.77 q-2.68 0 -4.32 1.76 t-1.66 4.48 z M812.1439999999996 5.48 q2.16 0 3.82 0.95 t2.57 2.66 t0.93 3.83 q0 3.26 -2.06 5.33 t-5.26 2.11 q-3.22 0 -5.24 -2.09 t-2.08 -5.35 q0.02 -3.26 2.04 -5.32 t5.28 -2.12 z M836.8679999999995 12.08 q1.54 0 2.38 -0.69 t0.84 -1.83 t-0.82 -1.82 t-2.44 -0.7 l-2.86 0 l0 5.04 l2.9 0 z M836.4679999999995 5.84 q4.9 0 4.94 3.72 q0 3.14 -3.62 3.64 l4.12 6.8 l-1.5 0 l-3.98 -6.72 l-2.46 0 l0 6.72 l-1.32 0 l0 -14.16 l3.82 0 z"
       id="path23"
       style="fill:#000000;fill-opacity:1" />
  </g>
</svg>
